<mxfile host="app.diagrams.net" modified="2023-05-05T19:33:56.394Z" agent="Mozilla/5.0 (X11; Ubuntu; Linux x86_64; rv:109.0) Gecko/20100101 Firefox/112.0" etag="tTYgkmYygd6OnuKSHIDb" version="21.2.9" type="device">
  <diagram name="Page-1" id="3Ta-ebRmQXSfHwOF5MTg">
    <mxGraphModel dx="1755" dy="488" grid="1" gridSize="5" guides="1" tooltips="1" connect="1" arrows="1" fold="1" page="1" pageScale="1" pageWidth="827" pageHeight="1169" math="0" shadow="0">
      <root>
        <mxCell id="0" />
        <mxCell id="1" parent="0" />
        <mxCell id="SHGWyjXXMI4OLjkZRUR8-1" value="" style="rounded=1;whiteSpace=wrap;html=1;fillColor=#B3FF66;" vertex="1" parent="1">
          <mxGeometry x="-250" width="360" height="685" as="geometry" />
        </mxCell>
        <mxCell id="TKd9hJtpSLccOIUxYixI-301" value="" style="endArrow=none;html=1;rounded=0;entryX=1;entryY=0.75;entryDx=0;entryDy=0;startArrow=oval;startFill=1;endFill=0;" parent="1" target="TKd9hJtpSLccOIUxYixI-300" edge="1">
          <mxGeometry width="50" height="50" relative="1" as="geometry">
            <mxPoint x="465" y="385" as="sourcePoint" />
            <mxPoint x="200" y="270" as="targetPoint" />
            <Array as="points">
              <mxPoint x="465" y="375" />
              <mxPoint x="230" y="375" />
              <mxPoint x="230" y="120" />
            </Array>
          </mxGeometry>
        </mxCell>
        <mxCell id="TKd9hJtpSLccOIUxYixI-250" value="" style="rounded=0;whiteSpace=wrap;html=1;strokeColor=none;fillColor=#9933FF;" parent="1" vertex="1">
          <mxGeometry x="160" y="705" width="370" height="35" as="geometry" />
        </mxCell>
        <mxCell id="TKd9hJtpSLccOIUxYixI-247" value="" style="rounded=0;whiteSpace=wrap;html=1;fillColor=#9933FF;strokeColor=none;" parent="1" vertex="1">
          <mxGeometry x="525" y="40" width="195" height="560" as="geometry" />
        </mxCell>
        <mxCell id="TKd9hJtpSLccOIUxYixI-248" value="" style="rounded=0;whiteSpace=wrap;html=1;strokeColor=none;fillColor=#9933FF;" parent="1" vertex="1">
          <mxGeometry x="525" y="600" width="75" height="140" as="geometry" />
        </mxCell>
        <mxCell id="TKd9hJtpSLccOIUxYixI-249" value="" style="rounded=0;whiteSpace=wrap;html=1;fillColor=#9933FF;strokeColor=none;" parent="1" vertex="1">
          <mxGeometry x="120" y="40" width="45" height="700" as="geometry" />
        </mxCell>
        <mxCell id="TKd9hJtpSLccOIUxYixI-244" value="" style="endArrow=none;html=1;rounded=0;entryX=0;entryY=1;entryDx=0;entryDy=0;exitX=1;exitY=1;exitDx=0;exitDy=0;" parent="1" source="TKd9hJtpSLccOIUxYixI-186" target="TKd9hJtpSLccOIUxYixI-186" edge="1">
          <mxGeometry width="50" height="50" relative="1" as="geometry">
            <mxPoint x="525.8" y="700" as="sourcePoint" />
            <mxPoint x="720" y="40" as="targetPoint" />
            <Array as="points">
              <mxPoint x="525" y="705" />
              <mxPoint x="165" y="705" />
              <mxPoint x="165" y="40" />
              <mxPoint x="120" y="40" />
              <mxPoint x="120" y="740" />
              <mxPoint x="600" y="740" />
              <mxPoint x="600" y="600" />
              <mxPoint x="720" y="600" />
              <mxPoint x="720" y="40" />
            </Array>
          </mxGeometry>
        </mxCell>
        <mxCell id="TKd9hJtpSLccOIUxYixI-223" value="" style="endArrow=none;html=1;rounded=0;" parent="1" edge="1">
          <mxGeometry width="50" height="50" relative="1" as="geometry">
            <mxPoint x="600" y="340" as="sourcePoint" />
            <mxPoint x="630" y="580" as="targetPoint" />
            <Array as="points">
              <mxPoint x="630" y="340" />
            </Array>
          </mxGeometry>
        </mxCell>
        <mxCell id="TKd9hJtpSLccOIUxYixI-224" value="" style="endArrow=none;html=1;rounded=0;" parent="1" edge="1">
          <mxGeometry width="50" height="50" relative="1" as="geometry">
            <mxPoint x="600" y="345" as="sourcePoint" />
            <mxPoint x="635" y="580" as="targetPoint" />
            <Array as="points">
              <mxPoint x="635" y="345" />
            </Array>
          </mxGeometry>
        </mxCell>
        <mxCell id="TKd9hJtpSLccOIUxYixI-225" value="" style="endArrow=none;html=1;rounded=0;" parent="1" edge="1">
          <mxGeometry width="50" height="50" relative="1" as="geometry">
            <mxPoint x="605" y="350" as="sourcePoint" />
            <mxPoint x="640" y="580" as="targetPoint" />
            <Array as="points">
              <mxPoint x="640" y="350" />
            </Array>
          </mxGeometry>
        </mxCell>
        <mxCell id="TKd9hJtpSLccOIUxYixI-226" value="" style="endArrow=none;html=1;rounded=0;" parent="1" edge="1">
          <mxGeometry width="50" height="50" relative="1" as="geometry">
            <mxPoint x="605" y="355" as="sourcePoint" />
            <mxPoint x="645" y="580" as="targetPoint" />
            <Array as="points">
              <mxPoint x="645" y="355" />
            </Array>
          </mxGeometry>
        </mxCell>
        <mxCell id="TKd9hJtpSLccOIUxYixI-227" value="" style="endArrow=none;html=1;rounded=0;" parent="1" edge="1">
          <mxGeometry width="50" height="50" relative="1" as="geometry">
            <mxPoint x="610" y="360" as="sourcePoint" />
            <mxPoint x="650" y="580" as="targetPoint" />
            <Array as="points">
              <mxPoint x="650" y="360" />
            </Array>
          </mxGeometry>
        </mxCell>
        <mxCell id="TKd9hJtpSLccOIUxYixI-228" value="" style="endArrow=none;html=1;rounded=0;" parent="1" edge="1">
          <mxGeometry width="50" height="50" relative="1" as="geometry">
            <mxPoint x="610" y="365" as="sourcePoint" />
            <mxPoint x="655" y="580" as="targetPoint" />
            <Array as="points">
              <mxPoint x="655" y="365" />
            </Array>
          </mxGeometry>
        </mxCell>
        <mxCell id="TKd9hJtpSLccOIUxYixI-229" value="" style="endArrow=none;html=1;rounded=0;" parent="1" edge="1">
          <mxGeometry width="50" height="50" relative="1" as="geometry">
            <mxPoint x="610" y="370" as="sourcePoint" />
            <mxPoint x="660" y="580" as="targetPoint" />
            <Array as="points">
              <mxPoint x="660" y="370" />
            </Array>
          </mxGeometry>
        </mxCell>
        <mxCell id="TKd9hJtpSLccOIUxYixI-230" value="" style="endArrow=none;html=1;rounded=0;" parent="1" edge="1">
          <mxGeometry width="50" height="50" relative="1" as="geometry">
            <mxPoint x="610" y="375" as="sourcePoint" />
            <mxPoint x="665" y="580" as="targetPoint" />
            <Array as="points">
              <mxPoint x="665" y="375" />
            </Array>
          </mxGeometry>
        </mxCell>
        <mxCell id="TKd9hJtpSLccOIUxYixI-231" value="" style="endArrow=none;html=1;rounded=0;" parent="1" edge="1">
          <mxGeometry width="50" height="50" relative="1" as="geometry">
            <mxPoint x="615" y="380" as="sourcePoint" />
            <mxPoint x="670" y="580" as="targetPoint" />
            <Array as="points">
              <mxPoint x="670" y="380" />
            </Array>
          </mxGeometry>
        </mxCell>
        <mxCell id="TKd9hJtpSLccOIUxYixI-232" value="" style="endArrow=none;html=1;rounded=0;" parent="1" edge="1">
          <mxGeometry width="50" height="50" relative="1" as="geometry">
            <mxPoint x="610" y="385" as="sourcePoint" />
            <mxPoint x="675" y="580" as="targetPoint" />
            <Array as="points">
              <mxPoint x="675" y="385" />
            </Array>
          </mxGeometry>
        </mxCell>
        <mxCell id="TKd9hJtpSLccOIUxYixI-233" value="" style="endArrow=none;html=1;rounded=0;" parent="1" edge="1">
          <mxGeometry width="50" height="50" relative="1" as="geometry">
            <mxPoint x="610" y="390" as="sourcePoint" />
            <mxPoint x="680" y="580" as="targetPoint" />
            <Array as="points">
              <mxPoint x="680" y="390" />
            </Array>
          </mxGeometry>
        </mxCell>
        <mxCell id="TKd9hJtpSLccOIUxYixI-234" value="" style="endArrow=none;html=1;rounded=0;" parent="1" edge="1">
          <mxGeometry width="50" height="50" relative="1" as="geometry">
            <mxPoint x="610" y="395" as="sourcePoint" />
            <mxPoint x="685" y="580" as="targetPoint" />
            <Array as="points">
              <mxPoint x="685" y="395" />
            </Array>
          </mxGeometry>
        </mxCell>
        <mxCell id="TKd9hJtpSLccOIUxYixI-235" value="" style="endArrow=none;html=1;rounded=0;" parent="1" edge="1">
          <mxGeometry width="50" height="50" relative="1" as="geometry">
            <mxPoint x="605" y="400" as="sourcePoint" />
            <mxPoint x="690" y="580" as="targetPoint" />
            <Array as="points">
              <mxPoint x="690" y="400" />
            </Array>
          </mxGeometry>
        </mxCell>
        <mxCell id="TKd9hJtpSLccOIUxYixI-236" value="" style="endArrow=none;html=1;rounded=0;" parent="1" edge="1">
          <mxGeometry width="50" height="50" relative="1" as="geometry">
            <mxPoint x="605" y="405" as="sourcePoint" />
            <mxPoint x="695" y="580" as="targetPoint" />
            <Array as="points">
              <mxPoint x="695" y="405" />
            </Array>
          </mxGeometry>
        </mxCell>
        <mxCell id="TKd9hJtpSLccOIUxYixI-237" value="" style="endArrow=none;html=1;rounded=0;" parent="1" edge="1">
          <mxGeometry width="50" height="50" relative="1" as="geometry">
            <mxPoint x="600" y="410" as="sourcePoint" />
            <mxPoint x="700" y="580" as="targetPoint" />
            <Array as="points">
              <mxPoint x="700" y="410" />
            </Array>
          </mxGeometry>
        </mxCell>
        <mxCell id="TKd9hJtpSLccOIUxYixI-238" value="" style="endArrow=none;html=1;rounded=0;" parent="1" edge="1">
          <mxGeometry width="50" height="50" relative="1" as="geometry">
            <mxPoint x="600" y="415" as="sourcePoint" />
            <mxPoint x="705" y="580" as="targetPoint" />
            <Array as="points">
              <mxPoint x="705" y="415" />
            </Array>
          </mxGeometry>
        </mxCell>
        <mxCell id="TKd9hJtpSLccOIUxYixI-181" style="edgeStyle=orthogonalEdgeStyle;rounded=0;orthogonalLoop=1;jettySize=auto;html=1;exitX=1;exitY=0.5;exitDx=0;exitDy=0;entryX=0;entryY=0.5;entryDx=0;entryDy=0;endArrow=none;endFill=0;" parent="1" source="TKd9hJtpSLccOIUxYixI-2" target="TKd9hJtpSLccOIUxYixI-178" edge="1">
          <mxGeometry relative="1" as="geometry" />
        </mxCell>
        <mxCell id="TKd9hJtpSLccOIUxYixI-2" value="" style="rounded=0;whiteSpace=wrap;html=1;fillColor=#66FF66;strokeColor=#82b366;" parent="1" vertex="1">
          <mxGeometry x="360" y="20" width="80" height="115" as="geometry" />
        </mxCell>
        <mxCell id="TKd9hJtpSLccOIUxYixI-3" value="Mem" style="text;html=1;strokeColor=none;fillColor=none;align=center;verticalAlign=middle;whiteSpace=wrap;rounded=0;fontSize=25;" parent="1" vertex="1">
          <mxGeometry x="382.5" y="60" width="35" height="15" as="geometry" />
        </mxCell>
        <mxCell id="TKd9hJtpSLccOIUxYixI-6" style="edgeStyle=orthogonalEdgeStyle;rounded=0;orthogonalLoop=1;jettySize=auto;html=1;exitX=0.5;exitY=1;exitDx=0;exitDy=0;entryX=-0.007;entryY=0.176;entryDx=0;entryDy=0;entryPerimeter=0;endArrow=none;endFill=0;" parent="1" source="TKd9hJtpSLccOIUxYixI-4" target="TKd9hJtpSLccOIUxYixI-2" edge="1">
          <mxGeometry relative="1" as="geometry" />
        </mxCell>
        <mxCell id="TKd9hJtpSLccOIUxYixI-7" value="WE" style="text;html=1;strokeColor=none;fillColor=none;align=center;verticalAlign=middle;whiteSpace=wrap;rounded=0;" parent="1" vertex="1">
          <mxGeometry x="360" y="32.5" width="25" height="15" as="geometry" />
        </mxCell>
        <mxCell id="TKd9hJtpSLccOIUxYixI-8" value="Data" style="text;html=1;strokeColor=none;fillColor=none;align=center;verticalAlign=middle;whiteSpace=wrap;rounded=0;" parent="1" vertex="1">
          <mxGeometry x="362" y="87.5" width="25" height="15" as="geometry" />
        </mxCell>
        <mxCell id="TKd9hJtpSLccOIUxYixI-14" value="CLK" style="endArrow=block;html=1;rounded=0;endFill=0;endSize=13;" parent="1" edge="1">
          <mxGeometry x="-0.7143" y="10" width="50" height="50" relative="1" as="geometry">
            <mxPoint x="460" y="125" as="sourcePoint" />
            <mxPoint x="425" y="125" as="targetPoint" />
            <mxPoint as="offset" />
          </mxGeometry>
        </mxCell>
        <mxCell id="TKd9hJtpSLccOIUxYixI-17" value="" style="group" parent="1" vertex="1" connectable="0">
          <mxGeometry x="360" y="145" width="100" height="60" as="geometry" />
        </mxCell>
        <mxCell id="TKd9hJtpSLccOIUxYixI-10" value="AR" style="rounded=0;whiteSpace=wrap;html=1;fillColor=#33FFFF;strokeColor=#006666;fontSize=25;spacingTop=18;spacingLeft=15;" parent="TKd9hJtpSLccOIUxYixI-17" vertex="1">
          <mxGeometry width="80" height="60" as="geometry" />
        </mxCell>
        <mxCell id="TKd9hJtpSLccOIUxYixI-11" value="Load" style="text;html=1;strokeColor=none;fillColor=none;align=center;verticalAlign=middle;whiteSpace=wrap;rounded=0;" parent="TKd9hJtpSLccOIUxYixI-17" vertex="1">
          <mxGeometry x="3" y="5" width="25" height="15" as="geometry" />
        </mxCell>
        <mxCell id="TKd9hJtpSLccOIUxYixI-12" value="Data" style="text;html=1;strokeColor=none;fillColor=none;align=center;verticalAlign=middle;whiteSpace=wrap;rounded=0;" parent="TKd9hJtpSLccOIUxYixI-17" vertex="1">
          <mxGeometry x="2" y="33" width="25" height="15" as="geometry" />
        </mxCell>
        <mxCell id="TKd9hJtpSLccOIUxYixI-13" value="000" style="rounded=0;whiteSpace=wrap;html=1;fontFamily=Fira Code;fontSize=16;" parent="TKd9hJtpSLccOIUxYixI-17" vertex="1">
          <mxGeometry x="35" width="45" height="20" as="geometry" />
        </mxCell>
        <mxCell id="TKd9hJtpSLccOIUxYixI-15" value="CLK" style="endArrow=block;html=1;rounded=0;endFill=0;endSize=13;" parent="TKd9hJtpSLccOIUxYixI-17" edge="1">
          <mxGeometry x="-0.7143" y="-10" width="50" height="50" relative="1" as="geometry">
            <mxPoint x="100" y="51" as="sourcePoint" />
            <mxPoint x="65" y="51" as="targetPoint" />
            <mxPoint as="offset" />
          </mxGeometry>
        </mxCell>
        <mxCell id="TKd9hJtpSLccOIUxYixI-32" value="" style="group" parent="1" vertex="1" connectable="0">
          <mxGeometry x="360" y="210" width="100" height="60" as="geometry" />
        </mxCell>
        <mxCell id="TKd9hJtpSLccOIUxYixI-33" value="PC" style="rounded=0;whiteSpace=wrap;html=1;fillColor=#33FFFF;strokeColor=#006666;fontSize=25;spacingTop=18;spacingLeft=15;" parent="TKd9hJtpSLccOIUxYixI-32" vertex="1">
          <mxGeometry width="80" height="60" as="geometry" />
        </mxCell>
        <mxCell id="TKd9hJtpSLccOIUxYixI-34" value="Load" style="text;html=1;strokeColor=none;fillColor=none;align=center;verticalAlign=middle;whiteSpace=wrap;rounded=0;" parent="TKd9hJtpSLccOIUxYixI-32" vertex="1">
          <mxGeometry x="3" y="5" width="25" height="15" as="geometry" />
        </mxCell>
        <mxCell id="TKd9hJtpSLccOIUxYixI-35" value="Data" style="text;html=1;strokeColor=none;fillColor=none;align=center;verticalAlign=middle;whiteSpace=wrap;rounded=0;" parent="TKd9hJtpSLccOIUxYixI-32" vertex="1">
          <mxGeometry x="3" y="23" width="25" height="15" as="geometry" />
        </mxCell>
        <mxCell id="TKd9hJtpSLccOIUxYixI-36" value="000" style="rounded=0;whiteSpace=wrap;html=1;fontFamily=Fira Code;fontSize=16;" parent="TKd9hJtpSLccOIUxYixI-32" vertex="1">
          <mxGeometry x="35" width="45" height="20" as="geometry" />
        </mxCell>
        <mxCell id="TKd9hJtpSLccOIUxYixI-37" value="CLK" style="endArrow=block;html=1;rounded=0;endFill=0;endSize=13;" parent="TKd9hJtpSLccOIUxYixI-32" edge="1">
          <mxGeometry x="-0.7143" y="-10" width="50" height="50" relative="1" as="geometry">
            <mxPoint x="100" y="51" as="sourcePoint" />
            <mxPoint x="65" y="51" as="targetPoint" />
            <mxPoint as="offset" />
          </mxGeometry>
        </mxCell>
        <mxCell id="TKd9hJtpSLccOIUxYixI-78" value="En" style="text;html=1;strokeColor=none;fillColor=none;align=left;verticalAlign=middle;whiteSpace=wrap;rounded=0;" parent="TKd9hJtpSLccOIUxYixI-32" vertex="1">
          <mxGeometry y="41" width="25" height="15" as="geometry" />
        </mxCell>
        <mxCell id="TKd9hJtpSLccOIUxYixI-38" value="" style="group" parent="1" vertex="1" connectable="0">
          <mxGeometry x="360" y="275" width="100" height="60" as="geometry" />
        </mxCell>
        <mxCell id="TKd9hJtpSLccOIUxYixI-39" value="DR" style="rounded=0;whiteSpace=wrap;html=1;fillColor=#33FFFF;strokeColor=#006666;fontSize=25;spacingTop=18;spacingLeft=15;" parent="TKd9hJtpSLccOIUxYixI-38" vertex="1">
          <mxGeometry width="80" height="60" as="geometry" />
        </mxCell>
        <mxCell id="TKd9hJtpSLccOIUxYixI-40" value="Load" style="text;html=1;strokeColor=none;fillColor=none;align=center;verticalAlign=middle;whiteSpace=wrap;rounded=0;" parent="TKd9hJtpSLccOIUxYixI-38" vertex="1">
          <mxGeometry x="3" y="15" width="25" height="15" as="geometry" />
        </mxCell>
        <mxCell id="TKd9hJtpSLccOIUxYixI-41" value="Data" style="text;html=1;strokeColor=none;fillColor=none;align=center;verticalAlign=middle;whiteSpace=wrap;rounded=0;" parent="TKd9hJtpSLccOIUxYixI-38" vertex="1">
          <mxGeometry x="3" y="40" width="25" height="15" as="geometry" />
        </mxCell>
        <mxCell id="TKd9hJtpSLccOIUxYixI-42" value="0000" style="rounded=0;whiteSpace=wrap;html=1;fontFamily=Fira Code;fontSize=16;" parent="TKd9hJtpSLccOIUxYixI-38" vertex="1">
          <mxGeometry x="35" width="45" height="20" as="geometry" />
        </mxCell>
        <mxCell id="TKd9hJtpSLccOIUxYixI-43" value="CLK" style="endArrow=block;html=1;rounded=0;endFill=0;endSize=13;" parent="TKd9hJtpSLccOIUxYixI-38" edge="1">
          <mxGeometry x="-0.7143" y="-10" width="50" height="50" relative="1" as="geometry">
            <mxPoint x="100" y="51" as="sourcePoint" />
            <mxPoint x="65" y="51" as="targetPoint" />
            <mxPoint as="offset" />
          </mxGeometry>
        </mxCell>
        <mxCell id="TKd9hJtpSLccOIUxYixI-44" value="ALU" style="rounded=0;whiteSpace=wrap;html=1;fillColor=#3399FF;fontSize=25;spacingTop=35;spacingLeft=61;" parent="1" vertex="1">
          <mxGeometry x="155" y="355" width="120" height="60" as="geometry" />
        </mxCell>
        <mxCell id="TKd9hJtpSLccOIUxYixI-45" style="edgeStyle=orthogonalEdgeStyle;rounded=0;orthogonalLoop=1;jettySize=auto;html=1;exitX=1;exitY=0.5;exitDx=0;exitDy=0;entryX=0;entryY=0.25;entryDx=0;entryDy=0;endArrow=none;endFill=0;" parent="1" source="TKd9hJtpSLccOIUxYixI-39" target="TKd9hJtpSLccOIUxYixI-44" edge="1">
          <mxGeometry relative="1" as="geometry">
            <Array as="points">
              <mxPoint x="475" y="305" />
              <mxPoint x="475" y="350" />
              <mxPoint x="145" y="350" />
              <mxPoint x="145" y="370" />
            </Array>
          </mxGeometry>
        </mxCell>
        <mxCell id="TKd9hJtpSLccOIUxYixI-46" value="" style="group" parent="1" vertex="1" connectable="0">
          <mxGeometry x="360" y="355" width="100" height="60" as="geometry" />
        </mxCell>
        <mxCell id="TKd9hJtpSLccOIUxYixI-47" value="AC" style="rounded=0;whiteSpace=wrap;html=1;fillColor=#33FFFF;strokeColor=#006666;fontSize=25;spacingTop=18;spacingLeft=15;" parent="TKd9hJtpSLccOIUxYixI-46" vertex="1">
          <mxGeometry width="80" height="60" as="geometry" />
        </mxCell>
        <mxCell id="TKd9hJtpSLccOIUxYixI-48" value="Load" style="text;html=1;strokeColor=none;fillColor=none;align=center;verticalAlign=middle;whiteSpace=wrap;rounded=0;" parent="TKd9hJtpSLccOIUxYixI-46" vertex="1">
          <mxGeometry x="3" y="5" width="25" height="15" as="geometry" />
        </mxCell>
        <mxCell id="TKd9hJtpSLccOIUxYixI-49" value="Data" style="text;html=1;strokeColor=none;fillColor=none;align=center;verticalAlign=middle;whiteSpace=wrap;rounded=0;" parent="TKd9hJtpSLccOIUxYixI-46" vertex="1">
          <mxGeometry x="1" y="28" width="25" height="15" as="geometry" />
        </mxCell>
        <mxCell id="TKd9hJtpSLccOIUxYixI-50" value="0000" style="rounded=0;whiteSpace=wrap;html=1;fontFamily=Fira Code;fontSize=16;" parent="TKd9hJtpSLccOIUxYixI-46" vertex="1">
          <mxGeometry x="35" width="45" height="20" as="geometry" />
        </mxCell>
        <mxCell id="TKd9hJtpSLccOIUxYixI-51" value="CLK" style="endArrow=block;html=1;rounded=0;endFill=0;endSize=13;" parent="TKd9hJtpSLccOIUxYixI-46" edge="1">
          <mxGeometry x="-0.7143" y="-10" width="50" height="50" relative="1" as="geometry">
            <mxPoint x="100" y="51" as="sourcePoint" />
            <mxPoint x="65" y="51" as="targetPoint" />
            <mxPoint as="offset" />
          </mxGeometry>
        </mxCell>
        <mxCell id="TKd9hJtpSLccOIUxYixI-52" style="edgeStyle=orthogonalEdgeStyle;rounded=0;orthogonalLoop=1;jettySize=auto;html=1;exitX=1;exitY=0.5;exitDx=0;exitDy=0;entryX=0;entryY=0.75;entryDx=0;entryDy=0;endArrow=none;endFill=0;" parent="1" source="TKd9hJtpSLccOIUxYixI-47" target="TKd9hJtpSLccOIUxYixI-44" edge="1">
          <mxGeometry relative="1" as="geometry">
            <Array as="points">
              <mxPoint x="475" y="385" />
              <mxPoint x="475" y="425" />
              <mxPoint x="145" y="425" />
              <mxPoint x="145" y="400" />
            </Array>
          </mxGeometry>
        </mxCell>
        <mxCell id="TKd9hJtpSLccOIUxYixI-54" value="" style="group" parent="1" vertex="1" connectable="0">
          <mxGeometry x="360" y="435" width="100" height="60" as="geometry" />
        </mxCell>
        <mxCell id="TKd9hJtpSLccOIUxYixI-55" value="InpR" style="rounded=0;whiteSpace=wrap;html=1;fillColor=#33FFFF;strokeColor=#006666;fontSize=18;spacingTop=18;spacingLeft=19;" parent="TKd9hJtpSLccOIUxYixI-54" vertex="1">
          <mxGeometry width="80" height="60" as="geometry" />
        </mxCell>
        <mxCell id="TKd9hJtpSLccOIUxYixI-56" value="Load" style="text;html=1;strokeColor=none;fillColor=none;align=center;verticalAlign=middle;whiteSpace=wrap;rounded=0;" parent="TKd9hJtpSLccOIUxYixI-54" vertex="1">
          <mxGeometry x="3" y="5" width="25" height="15" as="geometry" />
        </mxCell>
        <mxCell id="TKd9hJtpSLccOIUxYixI-57" value="Data" style="text;html=1;strokeColor=none;fillColor=none;align=center;verticalAlign=middle;whiteSpace=wrap;rounded=0;" parent="TKd9hJtpSLccOIUxYixI-54" vertex="1">
          <mxGeometry x="3" y="35" width="25" height="15" as="geometry" />
        </mxCell>
        <mxCell id="TKd9hJtpSLccOIUxYixI-58" value="0000" style="rounded=0;whiteSpace=wrap;html=1;fontFamily=Fira Code;fontSize=16;" parent="TKd9hJtpSLccOIUxYixI-54" vertex="1">
          <mxGeometry x="35" width="45" height="20" as="geometry" />
        </mxCell>
        <mxCell id="TKd9hJtpSLccOIUxYixI-59" value="CLK" style="endArrow=block;html=1;rounded=0;endFill=0;endSize=13;" parent="TKd9hJtpSLccOIUxYixI-54" edge="1">
          <mxGeometry x="-0.7143" y="-10" width="50" height="50" relative="1" as="geometry">
            <mxPoint x="100" y="51" as="sourcePoint" />
            <mxPoint x="65" y="51" as="targetPoint" />
            <mxPoint as="offset" />
          </mxGeometry>
        </mxCell>
        <mxCell id="TKd9hJtpSLccOIUxYixI-60" value="" style="group" parent="1" vertex="1" connectable="0">
          <mxGeometry x="360" y="500" width="100" height="60" as="geometry" />
        </mxCell>
        <mxCell id="TKd9hJtpSLccOIUxYixI-61" value="TR" style="rounded=0;whiteSpace=wrap;html=1;fillColor=#33FFFF;strokeColor=#006666;fontSize=25;spacingTop=18;spacingLeft=15;" parent="TKd9hJtpSLccOIUxYixI-60" vertex="1">
          <mxGeometry width="80" height="60" as="geometry" />
        </mxCell>
        <mxCell id="TKd9hJtpSLccOIUxYixI-62" value="Load" style="text;html=1;strokeColor=none;fillColor=none;align=center;verticalAlign=middle;whiteSpace=wrap;rounded=0;" parent="TKd9hJtpSLccOIUxYixI-60" vertex="1">
          <mxGeometry x="3" y="5" width="25" height="15" as="geometry" />
        </mxCell>
        <mxCell id="TKd9hJtpSLccOIUxYixI-63" value="Data" style="text;html=1;strokeColor=none;fillColor=none;align=center;verticalAlign=middle;whiteSpace=wrap;rounded=0;" parent="TKd9hJtpSLccOIUxYixI-60" vertex="1">
          <mxGeometry x="3" y="35" width="25" height="15" as="geometry" />
        </mxCell>
        <mxCell id="TKd9hJtpSLccOIUxYixI-64" value="0000" style="rounded=0;whiteSpace=wrap;html=1;fontFamily=Fira Code;fontSize=16;" parent="TKd9hJtpSLccOIUxYixI-60" vertex="1">
          <mxGeometry x="35" width="45" height="20" as="geometry" />
        </mxCell>
        <mxCell id="TKd9hJtpSLccOIUxYixI-65" value="CLK" style="endArrow=block;html=1;rounded=0;endFill=0;endSize=13;" parent="TKd9hJtpSLccOIUxYixI-60" edge="1">
          <mxGeometry x="-0.7143" y="-10" width="50" height="50" relative="1" as="geometry">
            <mxPoint x="100" y="51" as="sourcePoint" />
            <mxPoint x="65" y="51" as="targetPoint" />
            <mxPoint as="offset" />
          </mxGeometry>
        </mxCell>
        <mxCell id="TKd9hJtpSLccOIUxYixI-66" value="" style="group" parent="1" vertex="1" connectable="0">
          <mxGeometry x="360" y="565" width="100" height="60" as="geometry" />
        </mxCell>
        <mxCell id="TKd9hJtpSLccOIUxYixI-67" value="IR" style="rounded=0;whiteSpace=wrap;html=1;fillColor=#33FFFF;strokeColor=#006666;fontSize=25;spacingTop=18;spacingLeft=15;" parent="TKd9hJtpSLccOIUxYixI-66" vertex="1">
          <mxGeometry width="80" height="60" as="geometry" />
        </mxCell>
        <mxCell id="TKd9hJtpSLccOIUxYixI-68" value="Load" style="text;html=1;strokeColor=none;fillColor=none;align=center;verticalAlign=middle;whiteSpace=wrap;rounded=0;" parent="TKd9hJtpSLccOIUxYixI-66" vertex="1">
          <mxGeometry x="3" y="5" width="25" height="15" as="geometry" />
        </mxCell>
        <mxCell id="TKd9hJtpSLccOIUxYixI-69" value="Data" style="text;html=1;strokeColor=none;fillColor=none;align=center;verticalAlign=middle;whiteSpace=wrap;rounded=0;" parent="TKd9hJtpSLccOIUxYixI-66" vertex="1">
          <mxGeometry x="3" y="35" width="25" height="15" as="geometry" />
        </mxCell>
        <mxCell id="TKd9hJtpSLccOIUxYixI-70" value="0000" style="rounded=0;whiteSpace=wrap;html=1;fontFamily=Fira Code;fontSize=16;" parent="TKd9hJtpSLccOIUxYixI-66" vertex="1">
          <mxGeometry x="35" width="45" height="20" as="geometry" />
        </mxCell>
        <mxCell id="TKd9hJtpSLccOIUxYixI-71" value="CLK" style="endArrow=block;html=1;rounded=0;endFill=0;endSize=13;" parent="TKd9hJtpSLccOIUxYixI-66" edge="1">
          <mxGeometry x="-0.7143" y="-10" width="50" height="50" relative="1" as="geometry">
            <mxPoint x="100" y="51" as="sourcePoint" />
            <mxPoint x="65" y="51" as="targetPoint" />
            <mxPoint as="offset" />
          </mxGeometry>
        </mxCell>
        <mxCell id="TKd9hJtpSLccOIUxYixI-72" value="" style="group" parent="1" vertex="1" connectable="0">
          <mxGeometry x="360" y="630" width="100" height="60" as="geometry" />
        </mxCell>
        <mxCell id="TKd9hJtpSLccOIUxYixI-202" style="edgeStyle=orthogonalEdgeStyle;rounded=0;orthogonalLoop=1;jettySize=auto;html=1;exitX=1;exitY=0.5;exitDx=0;exitDy=0;endArrow=none;endFill=0;" parent="TKd9hJtpSLccOIUxYixI-72" source="TKd9hJtpSLccOIUxYixI-73" edge="1">
          <mxGeometry relative="1" as="geometry">
            <mxPoint x="150" y="30.076923076923094" as="targetPoint" />
          </mxGeometry>
        </mxCell>
        <mxCell id="TKd9hJtpSLccOIUxYixI-73" value="&lt;font style=&quot;font-size: 18px;&quot;&gt;OutR&lt;/font&gt;" style="rounded=0;whiteSpace=wrap;html=1;fillColor=#33FFFF;strokeColor=#006666;fontSize=18;spacingTop=18;spacingLeft=24;" parent="TKd9hJtpSLccOIUxYixI-72" vertex="1">
          <mxGeometry width="80" height="60" as="geometry" />
        </mxCell>
        <mxCell id="TKd9hJtpSLccOIUxYixI-74" value="Load" style="text;html=1;strokeColor=none;fillColor=none;align=center;verticalAlign=middle;whiteSpace=wrap;rounded=0;" parent="TKd9hJtpSLccOIUxYixI-72" vertex="1">
          <mxGeometry x="3" y="5" width="25" height="15" as="geometry" />
        </mxCell>
        <mxCell id="TKd9hJtpSLccOIUxYixI-75" value="Data" style="text;html=1;strokeColor=none;fillColor=none;align=center;verticalAlign=middle;whiteSpace=wrap;rounded=0;" parent="TKd9hJtpSLccOIUxYixI-72" vertex="1">
          <mxGeometry x="3" y="35" width="25" height="15" as="geometry" />
        </mxCell>
        <mxCell id="TKd9hJtpSLccOIUxYixI-76" value="0000" style="rounded=0;whiteSpace=wrap;html=1;fontFamily=Fira Code;fontSize=16;" parent="TKd9hJtpSLccOIUxYixI-72" vertex="1">
          <mxGeometry x="35" width="45" height="20" as="geometry" />
        </mxCell>
        <mxCell id="TKd9hJtpSLccOIUxYixI-77" value="CLK" style="endArrow=block;html=1;rounded=0;endFill=0;endSize=13;" parent="TKd9hJtpSLccOIUxYixI-72" edge="1">
          <mxGeometry x="-0.7143" y="-10" width="50" height="50" relative="1" as="geometry">
            <mxPoint x="100" y="51" as="sourcePoint" />
            <mxPoint x="65" y="51" as="targetPoint" />
            <mxPoint as="offset" />
          </mxGeometry>
        </mxCell>
        <mxCell id="TKd9hJtpSLccOIUxYixI-81" value="" style="group" parent="1" vertex="1" connectable="0">
          <mxGeometry x="245" y="24.999999999999996" width="100" height="30.000000000000004" as="geometry" />
        </mxCell>
        <mxCell id="TKd9hJtpSLccOIUxYixI-4" value="" style="verticalLabelPosition=bottom;verticalAlign=top;html=1;shape=offPageConnector;rounded=0;size=0.25;rotation=-90;fillColor=#E6E6E6;" parent="TKd9hJtpSLccOIUxYixI-81" vertex="1">
          <mxGeometry x="35" y="-35" width="30" height="100" as="geometry" />
        </mxCell>
        <mxCell id="TKd9hJtpSLccOIUxYixI-80" value="Load M" style="text;html=1;strokeColor=none;fillColor=none;align=center;verticalAlign=middle;whiteSpace=wrap;rounded=0;fontSize=17;" parent="TKd9hJtpSLccOIUxYixI-81" vertex="1">
          <mxGeometry x="10" y="3.552713678800501e-15" width="60" height="30" as="geometry" />
        </mxCell>
        <mxCell id="TKd9hJtpSLccOIUxYixI-82" value="" style="group" parent="1" vertex="1" connectable="0">
          <mxGeometry x="245" y="140" width="100" height="30.000000000000004" as="geometry" />
        </mxCell>
        <mxCell id="TKd9hJtpSLccOIUxYixI-83" value="" style="verticalLabelPosition=bottom;verticalAlign=top;html=1;shape=offPageConnector;rounded=0;size=0.25;rotation=-90;fillColor=#E6E6E6;" parent="TKd9hJtpSLccOIUxYixI-82" vertex="1">
          <mxGeometry x="35" y="-35" width="30" height="100" as="geometry" />
        </mxCell>
        <mxCell id="TKd9hJtpSLccOIUxYixI-84" value="Load AR" style="text;html=1;strokeColor=none;fillColor=none;align=center;verticalAlign=middle;whiteSpace=wrap;rounded=0;fontSize=17;" parent="TKd9hJtpSLccOIUxYixI-82" vertex="1">
          <mxGeometry x="5" width="70" height="30" as="geometry" />
        </mxCell>
        <mxCell id="TKd9hJtpSLccOIUxYixI-85" value="" style="group" parent="1" vertex="1" connectable="0">
          <mxGeometry x="245" y="205" width="100" height="30.000000000000004" as="geometry" />
        </mxCell>
        <mxCell id="TKd9hJtpSLccOIUxYixI-86" value="" style="verticalLabelPosition=bottom;verticalAlign=top;html=1;shape=offPageConnector;rounded=0;size=0.25;rotation=-90;fillColor=#E6E6E6;" parent="TKd9hJtpSLccOIUxYixI-85" vertex="1">
          <mxGeometry x="35" y="-35" width="30" height="100" as="geometry" />
        </mxCell>
        <mxCell id="TKd9hJtpSLccOIUxYixI-87" value="Load PC" style="text;html=1;strokeColor=none;fillColor=none;align=center;verticalAlign=middle;whiteSpace=wrap;rounded=0;fontSize=17;" parent="TKd9hJtpSLccOIUxYixI-85" vertex="1">
          <mxGeometry x="5" width="70" height="30" as="geometry" />
        </mxCell>
        <mxCell id="TKd9hJtpSLccOIUxYixI-88" value="" style="group" parent="1" vertex="1" connectable="0">
          <mxGeometry x="245" y="245" width="100" height="30.000000000000004" as="geometry" />
        </mxCell>
        <mxCell id="TKd9hJtpSLccOIUxYixI-89" value="" style="verticalLabelPosition=bottom;verticalAlign=top;html=1;shape=offPageConnector;rounded=0;size=0.25;rotation=-90;fillColor=#E6E6E6;" parent="TKd9hJtpSLccOIUxYixI-88" vertex="1">
          <mxGeometry x="35" y="-35" width="30" height="100" as="geometry" />
        </mxCell>
        <mxCell id="TKd9hJtpSLccOIUxYixI-90" value="En PC" style="text;html=1;strokeColor=none;fillColor=none;align=center;verticalAlign=middle;whiteSpace=wrap;rounded=0;fontSize=17;" parent="TKd9hJtpSLccOIUxYixI-88" vertex="1">
          <mxGeometry x="10" y="3.552713678800501e-15" width="60" height="30" as="geometry" />
        </mxCell>
        <mxCell id="TKd9hJtpSLccOIUxYixI-91" value="" style="group" parent="1" vertex="1" connectable="0">
          <mxGeometry x="251" y="280" width="100" height="30.000000000000004" as="geometry" />
        </mxCell>
        <mxCell id="TKd9hJtpSLccOIUxYixI-92" value="" style="verticalLabelPosition=bottom;verticalAlign=top;html=1;shape=offPageConnector;rounded=0;size=0.25;rotation=-90;fillColor=#E6E6E6;" parent="TKd9hJtpSLccOIUxYixI-91" vertex="1">
          <mxGeometry x="35" y="-35" width="30" height="100" as="geometry" />
        </mxCell>
        <mxCell id="TKd9hJtpSLccOIUxYixI-93" value="Load DR" style="text;html=1;strokeColor=none;fillColor=none;align=center;verticalAlign=middle;whiteSpace=wrap;rounded=0;fontSize=17;" parent="TKd9hJtpSLccOIUxYixI-91" vertex="1">
          <mxGeometry x="5" width="70" height="30" as="geometry" />
        </mxCell>
        <mxCell id="TKd9hJtpSLccOIUxYixI-94" value="" style="group" parent="1" vertex="1" connectable="0">
          <mxGeometry x="245" y="430" width="100" height="30.000000000000004" as="geometry" />
        </mxCell>
        <mxCell id="TKd9hJtpSLccOIUxYixI-95" value="" style="verticalLabelPosition=bottom;verticalAlign=top;html=1;shape=offPageConnector;rounded=0;size=0.25;rotation=-90;fillColor=#E6E6E6;" parent="TKd9hJtpSLccOIUxYixI-94" vertex="1">
          <mxGeometry x="35" y="-35" width="30" height="100" as="geometry" />
        </mxCell>
        <mxCell id="TKd9hJtpSLccOIUxYixI-96" value="Load InpR" style="text;html=1;strokeColor=none;fillColor=none;align=center;verticalAlign=middle;whiteSpace=wrap;rounded=0;fontSize=17;" parent="TKd9hJtpSLccOIUxYixI-94" vertex="1">
          <mxGeometry width="90" height="30" as="geometry" />
        </mxCell>
        <mxCell id="TKd9hJtpSLccOIUxYixI-97" value="" style="group" parent="1" vertex="1" connectable="0">
          <mxGeometry x="245" y="500" width="100" height="30.000000000000004" as="geometry" />
        </mxCell>
        <mxCell id="TKd9hJtpSLccOIUxYixI-98" value="" style="verticalLabelPosition=bottom;verticalAlign=top;html=1;shape=offPageConnector;rounded=0;size=0.25;rotation=-90;fillColor=#E6E6E6;" parent="TKd9hJtpSLccOIUxYixI-97" vertex="1">
          <mxGeometry x="35" y="-35" width="30" height="100" as="geometry" />
        </mxCell>
        <mxCell id="TKd9hJtpSLccOIUxYixI-99" value="Load TR" style="text;html=1;strokeColor=none;fillColor=none;align=center;verticalAlign=middle;whiteSpace=wrap;rounded=0;fontSize=17;" parent="TKd9hJtpSLccOIUxYixI-97" vertex="1">
          <mxGeometry x="5" width="70" height="30" as="geometry" />
        </mxCell>
        <mxCell id="TKd9hJtpSLccOIUxYixI-106" value="" style="group" parent="1" vertex="1" connectable="0">
          <mxGeometry x="245" y="560" width="100" height="30.000000000000004" as="geometry" />
        </mxCell>
        <mxCell id="TKd9hJtpSLccOIUxYixI-107" value="" style="verticalLabelPosition=bottom;verticalAlign=top;html=1;shape=offPageConnector;rounded=0;size=0.25;rotation=-90;fillColor=#E6E6E6;" parent="TKd9hJtpSLccOIUxYixI-106" vertex="1">
          <mxGeometry x="35" y="-35" width="30" height="100" as="geometry" />
        </mxCell>
        <mxCell id="TKd9hJtpSLccOIUxYixI-108" value="Load IR" style="text;html=1;strokeColor=none;fillColor=none;align=center;verticalAlign=middle;whiteSpace=wrap;rounded=0;fontSize=17;" parent="TKd9hJtpSLccOIUxYixI-106" vertex="1">
          <mxGeometry x="5" width="70" height="30" as="geometry" />
        </mxCell>
        <mxCell id="TKd9hJtpSLccOIUxYixI-109" value="" style="group" parent="1" vertex="1" connectable="0">
          <mxGeometry x="245" y="625" width="100" height="30.000000000000004" as="geometry" />
        </mxCell>
        <mxCell id="TKd9hJtpSLccOIUxYixI-110" value="" style="verticalLabelPosition=bottom;verticalAlign=top;html=1;shape=offPageConnector;rounded=0;size=0.25;rotation=-90;fillColor=#E6E6E6;" parent="TKd9hJtpSLccOIUxYixI-109" vertex="1">
          <mxGeometry x="35" y="-35" width="30" height="100" as="geometry" />
        </mxCell>
        <mxCell id="TKd9hJtpSLccOIUxYixI-111" value="Load OutR" style="text;html=1;strokeColor=none;fillColor=none;align=center;verticalAlign=middle;whiteSpace=wrap;rounded=0;fontSize=17;" parent="TKd9hJtpSLccOIUxYixI-109" vertex="1">
          <mxGeometry width="85" height="30" as="geometry" />
        </mxCell>
        <mxCell id="TKd9hJtpSLccOIUxYixI-114" value="" style="group;fillColor=none;fillStyle=solid;" parent="1" vertex="1" connectable="0">
          <mxGeometry x="250" y="85" width="65" height="20" as="geometry" />
        </mxCell>
        <mxCell id="TKd9hJtpSLccOIUxYixI-112" value="" style="verticalLabelPosition=bottom;verticalAlign=top;html=1;shape=hexagon;perimeter=hexagonPerimeter2;arcSize=6;size=0.17647058823529413;fillColor=#FFB366;" parent="TKd9hJtpSLccOIUxYixI-114" vertex="1">
          <mxGeometry width="65" height="20" as="geometry" />
        </mxCell>
        <mxCell id="TKd9hJtpSLccOIUxYixI-113" value="0000" style="text;html=1;strokeColor=none;fillColor=none;align=center;verticalAlign=middle;whiteSpace=wrap;rounded=0;fontFamily=Fira Code;fontSize=19;" parent="TKd9hJtpSLccOIUxYixI-114" vertex="1">
          <mxGeometry x="7.5" width="50" height="20" as="geometry" />
        </mxCell>
        <mxCell id="TKd9hJtpSLccOIUxYixI-116" value="" style="group;fillColor=none;fillStyle=solid;" parent="1" vertex="1" connectable="0">
          <mxGeometry x="250" y="175" width="65" height="20" as="geometry" />
        </mxCell>
        <mxCell id="TKd9hJtpSLccOIUxYixI-117" value="" style="verticalLabelPosition=bottom;verticalAlign=top;html=1;shape=hexagon;perimeter=hexagonPerimeter2;arcSize=6;size=0.17647058823529413;fillColor=#FFB366;" parent="TKd9hJtpSLccOIUxYixI-116" vertex="1">
          <mxGeometry width="65" height="20" as="geometry" />
        </mxCell>
        <mxCell id="TKd9hJtpSLccOIUxYixI-118" value="0000" style="text;html=1;strokeColor=none;fillColor=none;align=center;verticalAlign=middle;whiteSpace=wrap;rounded=0;fontFamily=Fira Code;fontSize=19;" parent="TKd9hJtpSLccOIUxYixI-116" vertex="1">
          <mxGeometry x="7.5" width="50" height="20" as="geometry" />
        </mxCell>
        <mxCell id="TKd9hJtpSLccOIUxYixI-119" value="" style="group;fillColor=none;fillStyle=solid;" parent="1" vertex="1" connectable="0">
          <mxGeometry x="175" y="230" width="65" height="20" as="geometry" />
        </mxCell>
        <mxCell id="TKd9hJtpSLccOIUxYixI-429" style="edgeStyle=orthogonalEdgeStyle;rounded=0;orthogonalLoop=1;jettySize=auto;html=1;exitX=0;exitY=0.5;exitDx=0;exitDy=0;endArrow=none;endFill=0;" parent="TKd9hJtpSLccOIUxYixI-119" source="TKd9hJtpSLccOIUxYixI-120" edge="1">
          <mxGeometry relative="1" as="geometry">
            <mxPoint x="-10" y="10" as="targetPoint" />
          </mxGeometry>
        </mxCell>
        <mxCell id="TKd9hJtpSLccOIUxYixI-120" value="" style="verticalLabelPosition=bottom;verticalAlign=top;html=1;shape=hexagon;perimeter=hexagonPerimeter2;arcSize=6;size=0.17647058823529413;fillColor=#FFB366;" parent="TKd9hJtpSLccOIUxYixI-119" vertex="1">
          <mxGeometry width="65" height="20" as="geometry" />
        </mxCell>
        <mxCell id="TKd9hJtpSLccOIUxYixI-121" value="0000" style="text;html=1;strokeColor=none;fillColor=none;align=center;verticalAlign=middle;whiteSpace=wrap;rounded=0;fontFamily=Fira Code;fontSize=19;" parent="TKd9hJtpSLccOIUxYixI-119" vertex="1">
          <mxGeometry x="7.5" width="50" height="20" as="geometry" />
        </mxCell>
        <mxCell id="TKd9hJtpSLccOIUxYixI-122" value="" style="group;fillColor=none;fillStyle=solid;" parent="1" vertex="1" connectable="0">
          <mxGeometry x="285" y="380" width="65" height="20" as="geometry" />
        </mxCell>
        <mxCell id="TKd9hJtpSLccOIUxYixI-123" value="" style="verticalLabelPosition=bottom;verticalAlign=top;html=1;shape=hexagon;perimeter=hexagonPerimeter2;arcSize=6;size=0.17647058823529413;fillColor=#FFB366;" parent="TKd9hJtpSLccOIUxYixI-122" vertex="1">
          <mxGeometry width="65" height="20" as="geometry" />
        </mxCell>
        <mxCell id="TKd9hJtpSLccOIUxYixI-124" value="0000" style="text;html=1;strokeColor=none;fillColor=none;align=center;verticalAlign=middle;whiteSpace=wrap;rounded=0;fontFamily=Fira Code;fontSize=19;" parent="TKd9hJtpSLccOIUxYixI-122" vertex="1">
          <mxGeometry x="7.5" width="50" height="20" as="geometry" />
        </mxCell>
        <mxCell id="TKd9hJtpSLccOIUxYixI-125" style="edgeStyle=orthogonalEdgeStyle;rounded=0;orthogonalLoop=1;jettySize=auto;html=1;exitX=0;exitY=0.5;exitDx=0;exitDy=0;entryX=1.008;entryY=0.589;entryDx=0;entryDy=0;entryPerimeter=0;endArrow=none;endFill=0;" parent="1" source="TKd9hJtpSLccOIUxYixI-123" target="TKd9hJtpSLccOIUxYixI-44" edge="1">
          <mxGeometry relative="1" as="geometry" />
        </mxCell>
        <mxCell id="TKd9hJtpSLccOIUxYixI-126" style="edgeStyle=orthogonalEdgeStyle;rounded=0;orthogonalLoop=1;jettySize=auto;html=1;exitX=1;exitY=0.5;exitDx=0;exitDy=0;entryX=-0.017;entryY=0.589;entryDx=0;entryDy=0;entryPerimeter=0;endArrow=classic;endFill=1;" parent="1" source="TKd9hJtpSLccOIUxYixI-123" target="TKd9hJtpSLccOIUxYixI-47" edge="1">
          <mxGeometry relative="1" as="geometry" />
        </mxCell>
        <mxCell id="TKd9hJtpSLccOIUxYixI-127" style="edgeStyle=orthogonalEdgeStyle;rounded=0;orthogonalLoop=1;jettySize=auto;html=1;exitX=1;exitY=0.5;exitDx=0;exitDy=0;entryX=-0.008;entryY=0.667;entryDx=0;entryDy=0;entryPerimeter=0;endArrow=none;endFill=0;" parent="1" source="TKd9hJtpSLccOIUxYixI-117" target="TKd9hJtpSLccOIUxYixI-10" edge="1">
          <mxGeometry relative="1" as="geometry" />
        </mxCell>
        <mxCell id="TKd9hJtpSLccOIUxYixI-129" style="edgeStyle=orthogonalEdgeStyle;rounded=0;orthogonalLoop=1;jettySize=auto;html=1;exitX=1;exitY=0.5;exitDx=0;exitDy=0;entryX=-0.017;entryY=0.652;entryDx=0;entryDy=0;entryPerimeter=0;endArrow=none;endFill=0;" parent="1" source="TKd9hJtpSLccOIUxYixI-112" target="TKd9hJtpSLccOIUxYixI-2" edge="1">
          <mxGeometry relative="1" as="geometry" />
        </mxCell>
        <mxCell id="TKd9hJtpSLccOIUxYixI-130" style="edgeStyle=orthogonalEdgeStyle;rounded=0;orthogonalLoop=1;jettySize=auto;html=1;exitX=1;exitY=0.5;exitDx=0;exitDy=0;entryX=0;entryY=0.5;entryDx=0;entryDy=0;endArrow=none;endFill=0;" parent="1" source="TKd9hJtpSLccOIUxYixI-120" target="TKd9hJtpSLccOIUxYixI-33" edge="1">
          <mxGeometry relative="1" as="geometry" />
        </mxCell>
        <mxCell id="TKd9hJtpSLccOIUxYixI-131" style="edgeStyle=orthogonalEdgeStyle;rounded=0;orthogonalLoop=1;jettySize=auto;html=1;exitX=0.5;exitY=1;exitDx=0;exitDy=0;entryX=0.004;entryY=0.183;entryDx=0;entryDy=0;entryPerimeter=0;endArrow=none;endFill=0;" parent="1" source="TKd9hJtpSLccOIUxYixI-86" target="TKd9hJtpSLccOIUxYixI-33" edge="1">
          <mxGeometry relative="1" as="geometry" />
        </mxCell>
        <mxCell id="TKd9hJtpSLccOIUxYixI-132" style="edgeStyle=orthogonalEdgeStyle;rounded=0;orthogonalLoop=1;jettySize=auto;html=1;exitX=0.5;exitY=1;exitDx=0;exitDy=0;entryX=0;entryY=0.833;entryDx=0;entryDy=0;entryPerimeter=0;endArrow=none;endFill=0;" parent="1" source="TKd9hJtpSLccOIUxYixI-89" target="TKd9hJtpSLccOIUxYixI-33" edge="1">
          <mxGeometry relative="1" as="geometry" />
        </mxCell>
        <mxCell id="TKd9hJtpSLccOIUxYixI-134" style="edgeStyle=orthogonalEdgeStyle;rounded=0;orthogonalLoop=1;jettySize=auto;html=1;exitX=0.5;exitY=1;exitDx=0;exitDy=0;entryX=0;entryY=0.161;entryDx=0;entryDy=0;entryPerimeter=0;endArrow=none;endFill=0;" parent="1" source="TKd9hJtpSLccOIUxYixI-83" target="TKd9hJtpSLccOIUxYixI-10" edge="1">
          <mxGeometry relative="1" as="geometry" />
        </mxCell>
        <mxCell id="TKd9hJtpSLccOIUxYixI-135" style="edgeStyle=orthogonalEdgeStyle;rounded=0;orthogonalLoop=1;jettySize=auto;html=1;exitX=0.5;exitY=1;exitDx=0;exitDy=0;entryX=0.004;entryY=0.339;entryDx=0;entryDy=0;entryPerimeter=0;endArrow=none;endFill=0;" parent="1" source="TKd9hJtpSLccOIUxYixI-92" target="TKd9hJtpSLccOIUxYixI-39" edge="1">
          <mxGeometry relative="1" as="geometry" />
        </mxCell>
        <mxCell id="TKd9hJtpSLccOIUxYixI-139" style="edgeStyle=orthogonalEdgeStyle;rounded=0;orthogonalLoop=1;jettySize=auto;html=1;exitX=0.5;exitY=1;exitDx=0;exitDy=0;entryX=0;entryY=0.25;entryDx=0;entryDy=0;endArrow=classic;endFill=1;" parent="1" source="TKd9hJtpSLccOIUxYixI-137" target="TKd9hJtpSLccOIUxYixI-47" edge="1">
          <mxGeometry relative="1" as="geometry">
            <Array as="points">
              <mxPoint x="280" y="330" />
              <mxPoint x="280" y="370" />
            </Array>
          </mxGeometry>
        </mxCell>
        <mxCell id="TKd9hJtpSLccOIUxYixI-140" style="edgeStyle=orthogonalEdgeStyle;rounded=0;orthogonalLoop=1;jettySize=auto;html=1;exitX=0.5;exitY=1;exitDx=0;exitDy=0;entryX=-0.004;entryY=0.178;entryDx=0;entryDy=0;entryPerimeter=0;endArrow=none;endFill=0;" parent="1" source="TKd9hJtpSLccOIUxYixI-95" target="TKd9hJtpSLccOIUxYixI-55" edge="1">
          <mxGeometry relative="1" as="geometry" />
        </mxCell>
        <mxCell id="TKd9hJtpSLccOIUxYixI-141" style="edgeStyle=orthogonalEdgeStyle;rounded=0;orthogonalLoop=1;jettySize=auto;html=1;exitX=0.5;exitY=1;exitDx=0;exitDy=0;entryX=0;entryY=0.25;entryDx=0;entryDy=0;endArrow=none;endFill=0;" parent="1" source="TKd9hJtpSLccOIUxYixI-98" target="TKd9hJtpSLccOIUxYixI-61" edge="1">
          <mxGeometry relative="1" as="geometry" />
        </mxCell>
        <mxCell id="TKd9hJtpSLccOIUxYixI-142" style="edgeStyle=orthogonalEdgeStyle;rounded=0;orthogonalLoop=1;jettySize=auto;html=1;exitX=0.5;exitY=1;exitDx=0;exitDy=0;endArrow=none;endFill=0;" parent="1" source="TKd9hJtpSLccOIUxYixI-107" edge="1">
          <mxGeometry relative="1" as="geometry">
            <mxPoint x="360" y="575" as="targetPoint" />
          </mxGeometry>
        </mxCell>
        <mxCell id="TKd9hJtpSLccOIUxYixI-143" style="edgeStyle=orthogonalEdgeStyle;rounded=0;orthogonalLoop=1;jettySize=auto;html=1;exitX=0.5;exitY=1;exitDx=0;exitDy=0;entryX=-0.004;entryY=0.172;entryDx=0;entryDy=0;entryPerimeter=0;endArrow=none;endFill=0;" parent="1" source="TKd9hJtpSLccOIUxYixI-110" target="TKd9hJtpSLccOIUxYixI-73" edge="1">
          <mxGeometry relative="1" as="geometry" />
        </mxCell>
        <mxCell id="TKd9hJtpSLccOIUxYixI-144" value="" style="group;fillColor=none;fillStyle=solid;" parent="1" vertex="1" connectable="0">
          <mxGeometry x="250" y="470" width="65" height="20" as="geometry" />
        </mxCell>
        <mxCell id="TKd9hJtpSLccOIUxYixI-145" value="" style="verticalLabelPosition=bottom;verticalAlign=top;html=1;shape=hexagon;perimeter=hexagonPerimeter2;arcSize=6;size=0.17647058823529413;fillColor=#FFB366;" parent="TKd9hJtpSLccOIUxYixI-144" vertex="1">
          <mxGeometry width="65" height="20" as="geometry" />
        </mxCell>
        <mxCell id="TKd9hJtpSLccOIUxYixI-146" value="0000" style="text;html=1;strokeColor=none;fillColor=none;align=center;verticalAlign=middle;whiteSpace=wrap;rounded=0;fontFamily=Fira Code;fontSize=19;" parent="TKd9hJtpSLccOIUxYixI-144" vertex="1">
          <mxGeometry x="7.5" width="50" height="20" as="geometry" />
        </mxCell>
        <mxCell id="TKd9hJtpSLccOIUxYixI-147" value="" style="group;fillColor=none;fillStyle=solid;" parent="1" vertex="1" connectable="0">
          <mxGeometry x="250" y="535" width="65" height="20" as="geometry" />
        </mxCell>
        <mxCell id="TKd9hJtpSLccOIUxYixI-148" value="" style="verticalLabelPosition=bottom;verticalAlign=top;html=1;shape=hexagon;perimeter=hexagonPerimeter2;arcSize=6;size=0.17647058823529413;fillColor=#FFB366;" parent="TKd9hJtpSLccOIUxYixI-147" vertex="1">
          <mxGeometry width="65" height="20" as="geometry" />
        </mxCell>
        <mxCell id="TKd9hJtpSLccOIUxYixI-149" value="0000" style="text;html=1;strokeColor=none;fillColor=none;align=center;verticalAlign=middle;whiteSpace=wrap;rounded=0;fontFamily=Fira Code;fontSize=19;" parent="TKd9hJtpSLccOIUxYixI-147" vertex="1">
          <mxGeometry x="7.5" width="50" height="20" as="geometry" />
        </mxCell>
        <mxCell id="TKd9hJtpSLccOIUxYixI-150" value="" style="group;fillColor=none;fillStyle=solid;" parent="1" vertex="1" connectable="0">
          <mxGeometry x="250" y="595" width="65" height="20" as="geometry" />
        </mxCell>
        <mxCell id="TKd9hJtpSLccOIUxYixI-151" value="" style="verticalLabelPosition=bottom;verticalAlign=top;html=1;shape=hexagon;perimeter=hexagonPerimeter2;arcSize=6;size=0.17647058823529413;fillColor=#FFB366;" parent="TKd9hJtpSLccOIUxYixI-150" vertex="1">
          <mxGeometry width="65" height="20" as="geometry" />
        </mxCell>
        <mxCell id="TKd9hJtpSLccOIUxYixI-152" value="0000" style="text;html=1;strokeColor=none;fillColor=none;align=center;verticalAlign=middle;whiteSpace=wrap;rounded=0;fontFamily=Fira Code;fontSize=19;" parent="TKd9hJtpSLccOIUxYixI-150" vertex="1">
          <mxGeometry x="7.5" width="50" height="20" as="geometry" />
        </mxCell>
        <mxCell id="TKd9hJtpSLccOIUxYixI-153" value="" style="group;fillColor=none;fillStyle=solid;" parent="1" vertex="1" connectable="0">
          <mxGeometry x="250" y="665" width="65" height="20" as="geometry" />
        </mxCell>
        <mxCell id="TKd9hJtpSLccOIUxYixI-154" value="" style="verticalLabelPosition=bottom;verticalAlign=top;html=1;shape=hexagon;perimeter=hexagonPerimeter2;arcSize=6;size=0.17647058823529413;fillColor=#FFB366;" parent="TKd9hJtpSLccOIUxYixI-153" vertex="1">
          <mxGeometry width="65" height="20" as="geometry" />
        </mxCell>
        <mxCell id="TKd9hJtpSLccOIUxYixI-155" value="0000" style="text;html=1;strokeColor=none;fillColor=none;align=center;verticalAlign=middle;whiteSpace=wrap;rounded=0;fontFamily=Fira Code;fontSize=19;" parent="TKd9hJtpSLccOIUxYixI-153" vertex="1">
          <mxGeometry x="7.5" width="50" height="20" as="geometry" />
        </mxCell>
        <mxCell id="TKd9hJtpSLccOIUxYixI-157" value="" style="group;fillColor=none;fillStyle=solid;" parent="1" vertex="1" connectable="0">
          <mxGeometry x="285" y="315" width="65" height="20" as="geometry" />
        </mxCell>
        <mxCell id="TKd9hJtpSLccOIUxYixI-158" value="" style="verticalLabelPosition=bottom;verticalAlign=top;html=1;shape=hexagon;perimeter=hexagonPerimeter2;arcSize=6;size=0.17647058823529413;fillColor=#FFB366;" parent="TKd9hJtpSLccOIUxYixI-157" vertex="1">
          <mxGeometry width="65" height="20" as="geometry" />
        </mxCell>
        <mxCell id="TKd9hJtpSLccOIUxYixI-159" value="0000" style="text;html=1;strokeColor=none;fillColor=none;align=center;verticalAlign=middle;whiteSpace=wrap;rounded=0;fontFamily=Fira Code;fontSize=19;" parent="TKd9hJtpSLccOIUxYixI-157" vertex="1">
          <mxGeometry x="7.5" width="50" height="20" as="geometry" />
        </mxCell>
        <mxCell id="TKd9hJtpSLccOIUxYixI-160" style="edgeStyle=orthogonalEdgeStyle;rounded=0;orthogonalLoop=1;jettySize=auto;html=1;exitX=1;exitY=0.5;exitDx=0;exitDy=0;entryX=0.01;entryY=0.817;entryDx=0;entryDy=0;entryPerimeter=0;endArrow=none;endFill=0;" parent="1" source="TKd9hJtpSLccOIUxYixI-158" target="TKd9hJtpSLccOIUxYixI-39" edge="1">
          <mxGeometry relative="1" as="geometry" />
        </mxCell>
        <mxCell id="TKd9hJtpSLccOIUxYixI-162" value="A" style="text;html=1;strokeColor=none;fillColor=none;align=left;verticalAlign=middle;whiteSpace=wrap;rounded=0;" parent="1" vertex="1">
          <mxGeometry x="158" y="360" width="25" height="15" as="geometry" />
        </mxCell>
        <mxCell id="TKd9hJtpSLccOIUxYixI-163" value="B" style="text;html=1;strokeColor=none;fillColor=none;align=left;verticalAlign=middle;whiteSpace=wrap;rounded=0;" parent="1" vertex="1">
          <mxGeometry x="158" y="395" width="25" height="15" as="geometry" />
        </mxCell>
        <mxCell id="TKd9hJtpSLccOIUxYixI-165" value="Func" style="text;html=1;strokeColor=none;fillColor=none;align=left;verticalAlign=middle;whiteSpace=wrap;rounded=0;" parent="1" vertex="1">
          <mxGeometry x="158" y="377.5" width="25" height="15" as="geometry" />
        </mxCell>
        <mxCell id="TKd9hJtpSLccOIUxYixI-166" value="Func: Add" style="rounded=0;whiteSpace=wrap;html=1;fontFamily=Fira Code;fontSize=15;align=left;" parent="1" vertex="1">
          <mxGeometry x="175" y="355" width="100" height="20" as="geometry" />
        </mxCell>
        <mxCell id="TKd9hJtpSLccOIUxYixI-167" value="" style="group;fillColor=none;fillStyle=solid;" parent="1" vertex="1" connectable="0">
          <mxGeometry x="115" y="375" width="30" height="20" as="geometry" />
        </mxCell>
        <mxCell id="TKd9hJtpSLccOIUxYixI-168" value="" style="verticalLabelPosition=bottom;verticalAlign=top;html=1;shape=hexagon;perimeter=hexagonPerimeter2;arcSize=6;size=0.17647058823529413;fillColor=#FFB366;" parent="TKd9hJtpSLccOIUxYixI-167" vertex="1">
          <mxGeometry width="30" height="20" as="geometry" />
        </mxCell>
        <mxCell id="TKd9hJtpSLccOIUxYixI-169" value="0" style="text;html=1;strokeColor=none;fillColor=none;align=center;verticalAlign=middle;whiteSpace=wrap;rounded=0;fontFamily=Fira Code;fontSize=19;" parent="TKd9hJtpSLccOIUxYixI-167" vertex="1">
          <mxGeometry x="3.4615384615384617" width="23.076923076923077" height="20" as="geometry" />
        </mxCell>
        <mxCell id="TKd9hJtpSLccOIUxYixI-170" style="edgeStyle=orthogonalEdgeStyle;rounded=0;orthogonalLoop=1;jettySize=auto;html=1;exitX=1;exitY=0.5;exitDx=0;exitDy=0;entryX=0;entryY=0.5;entryDx=0;entryDy=0;endArrow=none;endFill=0;" parent="1" source="TKd9hJtpSLccOIUxYixI-168" target="TKd9hJtpSLccOIUxYixI-44" edge="1">
          <mxGeometry relative="1" as="geometry" />
        </mxCell>
        <mxCell id="TKd9hJtpSLccOIUxYixI-171" style="edgeStyle=orthogonalEdgeStyle;rounded=0;orthogonalLoop=1;jettySize=auto;html=1;exitX=1;exitY=0.5;exitDx=0;exitDy=0;entryX=0;entryY=0.75;entryDx=0;entryDy=0;endArrow=none;endFill=0;" parent="1" source="TKd9hJtpSLccOIUxYixI-145" target="TKd9hJtpSLccOIUxYixI-55" edge="1">
          <mxGeometry relative="1" as="geometry" />
        </mxCell>
        <mxCell id="TKd9hJtpSLccOIUxYixI-172" style="edgeStyle=orthogonalEdgeStyle;rounded=0;orthogonalLoop=1;jettySize=auto;html=1;exitX=1;exitY=0.5;exitDx=0;exitDy=0;entryX=0;entryY=0.75;entryDx=0;entryDy=0;endArrow=none;endFill=0;" parent="1" source="TKd9hJtpSLccOIUxYixI-148" target="TKd9hJtpSLccOIUxYixI-61" edge="1">
          <mxGeometry relative="1" as="geometry" />
        </mxCell>
        <mxCell id="TKd9hJtpSLccOIUxYixI-174" style="edgeStyle=orthogonalEdgeStyle;rounded=0;orthogonalLoop=1;jettySize=auto;html=1;exitX=1;exitY=0.5;exitDx=0;exitDy=0;entryX=0.007;entryY=0.669;entryDx=0;entryDy=0;entryPerimeter=0;endArrow=none;endFill=0;" parent="1" source="TKd9hJtpSLccOIUxYixI-151" target="TKd9hJtpSLccOIUxYixI-67" edge="1">
          <mxGeometry relative="1" as="geometry" />
        </mxCell>
        <mxCell id="TKd9hJtpSLccOIUxYixI-176" style="edgeStyle=orthogonalEdgeStyle;rounded=0;orthogonalLoop=1;jettySize=auto;html=1;exitX=1;exitY=0.5;exitDx=0;exitDy=0;entryX=0;entryY=0.75;entryDx=0;entryDy=0;endArrow=none;endFill=0;" parent="1" source="TKd9hJtpSLccOIUxYixI-154" target="TKd9hJtpSLccOIUxYixI-73" edge="1">
          <mxGeometry relative="1" as="geometry" />
        </mxCell>
        <mxCell id="TKd9hJtpSLccOIUxYixI-177" value="" style="group;fillColor=none;fillStyle=solid;" parent="1" vertex="1" connectable="0">
          <mxGeometry x="449" y="67.5" width="65" height="20" as="geometry" />
        </mxCell>
        <mxCell id="TKd9hJtpSLccOIUxYixI-178" value="" style="verticalLabelPosition=bottom;verticalAlign=top;html=1;shape=hexagon;perimeter=hexagonPerimeter2;arcSize=6;size=0.17647058823529413;fillColor=#FFB366;" parent="TKd9hJtpSLccOIUxYixI-177" vertex="1">
          <mxGeometry width="65" height="20" as="geometry" />
        </mxCell>
        <mxCell id="TKd9hJtpSLccOIUxYixI-179" value="0000" style="text;html=1;strokeColor=none;fillColor=none;align=center;verticalAlign=middle;whiteSpace=wrap;rounded=0;fontFamily=Fira Code;fontSize=19;" parent="TKd9hJtpSLccOIUxYixI-177" vertex="1">
          <mxGeometry x="7.5" width="50" height="20" as="geometry" />
        </mxCell>
        <mxCell id="TKd9hJtpSLccOIUxYixI-182" style="edgeStyle=orthogonalEdgeStyle;rounded=0;orthogonalLoop=1;jettySize=auto;html=1;exitX=1;exitY=0.5;exitDx=0;exitDy=0;entryX=1;entryY=0.75;entryDx=0;entryDy=0;endArrow=none;endFill=0;" parent="1" source="TKd9hJtpSLccOIUxYixI-10" target="TKd9hJtpSLccOIUxYixI-2" edge="1">
          <mxGeometry relative="1" as="geometry">
            <Array as="points">
              <mxPoint x="475" y="175" />
              <mxPoint x="475" y="106" />
            </Array>
          </mxGeometry>
        </mxCell>
        <mxCell id="TKd9hJtpSLccOIUxYixI-183" value="Addr" style="text;html=1;strokeColor=none;fillColor=none;align=center;verticalAlign=middle;whiteSpace=wrap;rounded=0;" parent="1" vertex="1">
          <mxGeometry x="412" y="100" width="28" height="15" as="geometry" />
        </mxCell>
        <mxCell id="TKd9hJtpSLccOIUxYixI-184" value="[11:0]" style="text;html=1;strokeColor=none;fillColor=none;align=center;verticalAlign=middle;whiteSpace=wrap;rounded=0;" parent="1" vertex="1">
          <mxGeometry x="325" y="170" width="30" height="15" as="geometry" />
        </mxCell>
        <mxCell id="TKd9hJtpSLccOIUxYixI-186" value="MUX" style="shape=trapezoid;perimeter=trapezoidPerimeter;whiteSpace=wrap;html=1;fixedSize=1;rotation=90;fillColor=#CC99FF;fontSize=20;spacingBottom=33;" parent="1" vertex="1">
          <mxGeometry x="235" y="330" width="640" height="60" as="geometry" />
        </mxCell>
        <mxCell id="TKd9hJtpSLccOIUxYixI-187" style="edgeStyle=orthogonalEdgeStyle;rounded=0;orthogonalLoop=1;jettySize=auto;html=1;exitX=1;exitY=0.5;exitDx=0;exitDy=0;entryX=0.059;entryY=0.994;entryDx=0;entryDy=0;entryPerimeter=0;endArrow=none;endFill=0;" parent="1" source="TKd9hJtpSLccOIUxYixI-178" target="TKd9hJtpSLccOIUxYixI-186" edge="1">
          <mxGeometry relative="1" as="geometry" />
        </mxCell>
        <mxCell id="TKd9hJtpSLccOIUxYixI-188" value="" style="endArrow=none;html=1;rounded=0;startArrow=oval;startFill=1;entryX=0.211;entryY=0.999;entryDx=0;entryDy=0;entryPerimeter=0;" parent="1" target="TKd9hJtpSLccOIUxYixI-186" edge="1">
          <mxGeometry width="50" height="50" relative="1" as="geometry">
            <mxPoint x="475" y="175" as="sourcePoint" />
            <mxPoint x="515" y="175" as="targetPoint" />
          </mxGeometry>
        </mxCell>
        <mxCell id="TKd9hJtpSLccOIUxYixI-189" style="edgeStyle=orthogonalEdgeStyle;rounded=0;orthogonalLoop=1;jettySize=auto;html=1;exitX=1;exitY=0.5;exitDx=0;exitDy=0;entryX=0.312;entryY=0.991;entryDx=0;entryDy=0;entryPerimeter=0;endArrow=none;endFill=0;" parent="1" source="TKd9hJtpSLccOIUxYixI-33" target="TKd9hJtpSLccOIUxYixI-186" edge="1">
          <mxGeometry relative="1" as="geometry" />
        </mxCell>
        <mxCell id="TKd9hJtpSLccOIUxYixI-192" value="" style="endArrow=none;html=1;rounded=0;startArrow=oval;startFill=1;entryX=0.211;entryY=0.999;entryDx=0;entryDy=0;entryPerimeter=0;" parent="1" edge="1">
          <mxGeometry width="50" height="50" relative="1" as="geometry">
            <mxPoint x="475" y="304.83" as="sourcePoint" />
            <mxPoint x="525" y="304.83" as="targetPoint" />
          </mxGeometry>
        </mxCell>
        <mxCell id="TKd9hJtpSLccOIUxYixI-193" value="" style="endArrow=none;html=1;rounded=0;startArrow=oval;startFill=1;entryX=0.211;entryY=0.999;entryDx=0;entryDy=0;entryPerimeter=0;" parent="1" edge="1">
          <mxGeometry width="50" height="50" relative="1" as="geometry">
            <mxPoint x="475" y="384.83000000000004" as="sourcePoint" />
            <mxPoint x="525" y="384.83000000000004" as="targetPoint" />
          </mxGeometry>
        </mxCell>
        <mxCell id="TKd9hJtpSLccOIUxYixI-194" style="edgeStyle=orthogonalEdgeStyle;rounded=0;orthogonalLoop=1;jettySize=auto;html=1;exitX=1;exitY=0.5;exitDx=0;exitDy=0;entryX=0.664;entryY=0.989;entryDx=0;entryDy=0;entryPerimeter=0;endArrow=none;endFill=0;" parent="1" source="TKd9hJtpSLccOIUxYixI-55" target="TKd9hJtpSLccOIUxYixI-186" edge="1">
          <mxGeometry relative="1" as="geometry" />
        </mxCell>
        <mxCell id="TKd9hJtpSLccOIUxYixI-197" value="" style="endArrow=none;html=1;rounded=0;" parent="1" edge="1">
          <mxGeometry width="50" height="50" relative="1" as="geometry">
            <mxPoint x="440" y="594.83" as="sourcePoint" />
            <mxPoint x="525" y="595" as="targetPoint" />
          </mxGeometry>
        </mxCell>
        <mxCell id="TKd9hJtpSLccOIUxYixI-198" value="" style="endArrow=none;html=1;rounded=0;" parent="1" edge="1">
          <mxGeometry width="50" height="50" relative="1" as="geometry">
            <mxPoint x="440" y="529.83" as="sourcePoint" />
            <mxPoint x="525" y="530" as="targetPoint" />
          </mxGeometry>
        </mxCell>
        <mxCell id="TKd9hJtpSLccOIUxYixI-199" value="0" style="text;html=1;strokeColor=none;fillColor=none;align=center;verticalAlign=middle;whiteSpace=wrap;rounded=0;" parent="1" vertex="1">
          <mxGeometry x="525" y="70" width="15" height="15" as="geometry" />
        </mxCell>
        <mxCell id="TKd9hJtpSLccOIUxYixI-200" value="1" style="text;html=1;strokeColor=none;fillColor=none;align=center;verticalAlign=middle;whiteSpace=wrap;rounded=0;" parent="1" vertex="1">
          <mxGeometry x="525" y="167.5" width="15" height="15" as="geometry" />
        </mxCell>
        <mxCell id="TKd9hJtpSLccOIUxYixI-201" value="" style="curved=1;endArrow=none;html=1;rounded=0;endFill=0;" parent="1" edge="1">
          <mxGeometry width="50" height="50" relative="1" as="geometry">
            <mxPoint x="510" y="660" as="sourcePoint" />
            <mxPoint x="610" y="660" as="targetPoint" />
            <Array as="points">
              <mxPoint x="520" y="640" />
              <mxPoint x="560" y="630" />
              <mxPoint x="600" y="640" />
            </Array>
          </mxGeometry>
        </mxCell>
        <mxCell id="TKd9hJtpSLccOIUxYixI-203" value="" style="endArrow=classic;html=1;rounded=0;endSize=13;" parent="1" edge="1">
          <mxGeometry width="50" height="50" relative="1" as="geometry">
            <mxPoint x="610" y="659.8" as="sourcePoint" />
            <mxPoint x="640" y="659.8" as="targetPoint" />
          </mxGeometry>
        </mxCell>
        <mxCell id="TKd9hJtpSLccOIUxYixI-204" value="2" style="text;html=1;strokeColor=none;fillColor=none;align=center;verticalAlign=middle;whiteSpace=wrap;rounded=0;" parent="1" vertex="1">
          <mxGeometry x="525" y="232.5" width="15" height="15" as="geometry" />
        </mxCell>
        <mxCell id="TKd9hJtpSLccOIUxYixI-205" value="3" style="text;html=1;strokeColor=none;fillColor=none;align=center;verticalAlign=middle;whiteSpace=wrap;rounded=0;" parent="1" vertex="1">
          <mxGeometry x="525" y="297.5" width="15" height="15" as="geometry" />
        </mxCell>
        <mxCell id="TKd9hJtpSLccOIUxYixI-206" value="4" style="text;html=1;strokeColor=none;fillColor=none;align=center;verticalAlign=middle;whiteSpace=wrap;rounded=0;" parent="1" vertex="1">
          <mxGeometry x="525" y="377.5" width="15" height="15" as="geometry" />
        </mxCell>
        <mxCell id="TKd9hJtpSLccOIUxYixI-207" value="5" style="text;html=1;strokeColor=none;fillColor=none;align=center;verticalAlign=middle;whiteSpace=wrap;rounded=0;" parent="1" vertex="1">
          <mxGeometry x="525" y="457.5" width="15" height="15" as="geometry" />
        </mxCell>
        <mxCell id="TKd9hJtpSLccOIUxYixI-208" value="6" style="text;html=1;strokeColor=none;fillColor=none;align=center;verticalAlign=middle;whiteSpace=wrap;rounded=0;" parent="1" vertex="1">
          <mxGeometry x="525" y="522.5" width="15" height="15" as="geometry" />
        </mxCell>
        <mxCell id="TKd9hJtpSLccOIUxYixI-209" value="7" style="text;html=1;strokeColor=none;fillColor=none;align=center;verticalAlign=middle;whiteSpace=wrap;rounded=0;" parent="1" vertex="1">
          <mxGeometry x="525" y="587.5" width="15" height="15" as="geometry" />
        </mxCell>
        <mxCell id="TKd9hJtpSLccOIUxYixI-210" value="" style="ellipse;whiteSpace=wrap;html=1;aspect=fixed;fillColor=#66FF66;" parent="1" vertex="1">
          <mxGeometry x="540" y="67.5" width="20" height="20" as="geometry" />
        </mxCell>
        <mxCell id="TKd9hJtpSLccOIUxYixI-211" value="" style="ellipse;whiteSpace=wrap;html=1;aspect=fixed;fillColor=#E6E6E6;" parent="1" vertex="1">
          <mxGeometry x="540" y="165" width="20" height="20" as="geometry" />
        </mxCell>
        <mxCell id="TKd9hJtpSLccOIUxYixI-212" value="" style="ellipse;whiteSpace=wrap;html=1;aspect=fixed;fillColor=#E6E6E6;" parent="1" vertex="1">
          <mxGeometry x="540" y="230" width="20" height="20" as="geometry" />
        </mxCell>
        <mxCell id="TKd9hJtpSLccOIUxYixI-213" value="" style="ellipse;whiteSpace=wrap;html=1;aspect=fixed;fillColor=#E6E6E6;" parent="1" vertex="1">
          <mxGeometry x="540" y="295" width="20" height="20" as="geometry" />
        </mxCell>
        <mxCell id="TKd9hJtpSLccOIUxYixI-214" value="" style="ellipse;whiteSpace=wrap;html=1;aspect=fixed;fillColor=#E6E6E6;" parent="1" vertex="1">
          <mxGeometry x="540" y="375" width="20" height="20" as="geometry" />
        </mxCell>
        <mxCell id="TKd9hJtpSLccOIUxYixI-215" value="" style="ellipse;whiteSpace=wrap;html=1;aspect=fixed;fillColor=#E6E6E6;" parent="1" vertex="1">
          <mxGeometry x="540" y="455" width="20" height="20" as="geometry" />
        </mxCell>
        <mxCell id="TKd9hJtpSLccOIUxYixI-216" value="" style="ellipse;whiteSpace=wrap;html=1;aspect=fixed;fillColor=#E6E6E6;" parent="1" vertex="1">
          <mxGeometry x="540" y="520" width="20" height="20" as="geometry" />
        </mxCell>
        <mxCell id="TKd9hJtpSLccOIUxYixI-217" value="" style="ellipse;whiteSpace=wrap;html=1;aspect=fixed;fillColor=#E6E6E6;" parent="1" vertex="1">
          <mxGeometry x="540" y="585" width="20" height="20" as="geometry" />
        </mxCell>
        <mxCell id="TKd9hJtpSLccOIUxYixI-218" value="" style="shape=flexArrow;endArrow=classic;html=1;rounded=0;endWidth=55.17036235803137;endSize=6.134883720930232;width=19.767441860465116;fillColor=default;" parent="1" edge="1">
          <mxGeometry width="50" height="50" relative="1" as="geometry">
            <mxPoint x="585" y="379.88" as="sourcePoint" />
            <mxPoint x="620" y="380" as="targetPoint" />
          </mxGeometry>
        </mxCell>
        <mxCell id="TKd9hJtpSLccOIUxYixI-239" value="" style="group;fillColor=none;fillStyle=solid;" parent="1" vertex="1" connectable="0">
          <mxGeometry x="635" y="420" width="65" height="20" as="geometry" />
        </mxCell>
        <mxCell id="TKd9hJtpSLccOIUxYixI-240" value="" style="verticalLabelPosition=bottom;verticalAlign=top;html=1;shape=hexagon;perimeter=hexagonPerimeter2;arcSize=6;size=0.17647058823529413;fillColor=#FFB366;" parent="TKd9hJtpSLccOIUxYixI-239" vertex="1">
          <mxGeometry width="65" height="20" as="geometry" />
        </mxCell>
        <mxCell id="TKd9hJtpSLccOIUxYixI-241" value="0000" style="text;html=1;strokeColor=none;fillColor=none;align=center;verticalAlign=middle;whiteSpace=wrap;rounded=0;fontFamily=Fira Code;fontSize=19;" parent="TKd9hJtpSLccOIUxYixI-239" vertex="1">
          <mxGeometry x="7.5" width="50" height="20" as="geometry" />
        </mxCell>
        <mxCell id="TKd9hJtpSLccOIUxYixI-246" value="Common Bus" style="text;html=1;strokeColor=none;fillColor=none;align=center;verticalAlign=middle;whiteSpace=wrap;rounded=0;rotation=90;fontSize=26;" parent="1" vertex="1">
          <mxGeometry x="555" y="167.5" width="200" height="50" as="geometry" />
        </mxCell>
        <mxCell id="TKd9hJtpSLccOIUxYixI-258" style="edgeStyle=orthogonalEdgeStyle;rounded=0;orthogonalLoop=1;jettySize=auto;html=1;exitX=1;exitY=0.5;exitDx=0;exitDy=0;entryX=0;entryY=0.5;entryDx=0;entryDy=0;endArrow=none;endFill=0;" parent="1" source="TKd9hJtpSLccOIUxYixI-257" target="TKd9hJtpSLccOIUxYixI-168" edge="1">
          <mxGeometry relative="1" as="geometry" />
        </mxCell>
        <mxCell id="TKd9hJtpSLccOIUxYixI-257" value="" style="rounded=0;whiteSpace=wrap;html=1;" parent="1" vertex="1">
          <mxGeometry x="60" y="325" width="45" height="120" as="geometry" />
        </mxCell>
        <mxCell id="TKd9hJtpSLccOIUxYixI-259" value="Encoder" style="text;html=1;strokeColor=none;fillColor=none;align=center;verticalAlign=middle;whiteSpace=wrap;rounded=0;rotation=90;fontSize=25;" parent="1" vertex="1">
          <mxGeometry x="40" y="369.5" width="100" height="30" as="geometry" />
        </mxCell>
        <mxCell id="TKd9hJtpSLccOIUxYixI-367" style="edgeStyle=orthogonalEdgeStyle;rounded=0;orthogonalLoop=1;jettySize=auto;html=1;exitX=0.25;exitY=0;exitDx=0;exitDy=0;entryX=0;entryY=0.25;entryDx=0;entryDy=0;endArrow=none;endFill=0;" parent="1" source="TKd9hJtpSLccOIUxYixI-260" target="TKd9hJtpSLccOIUxYixI-299" edge="1">
          <mxGeometry relative="1" as="geometry">
            <Array as="points">
              <mxPoint x="-174" y="200" />
              <mxPoint x="-174" y="80" />
            </Array>
          </mxGeometry>
        </mxCell>
        <mxCell id="TKd9hJtpSLccOIUxYixI-260" value="" style="rounded=0;whiteSpace=wrap;html=1;fillColor=#99FF99;" parent="1" vertex="1">
          <mxGeometry x="-245" y="260" width="285" height="270" as="geometry" />
        </mxCell>
        <mxCell id="TKd9hJtpSLccOIUxYixI-261" value="" style="endArrow=none;html=1;rounded=0;" parent="1" edge="1">
          <mxGeometry width="50" height="50" relative="1" as="geometry">
            <mxPoint x="40" y="334.86" as="sourcePoint" />
            <mxPoint x="60" y="334.86" as="targetPoint" />
          </mxGeometry>
        </mxCell>
        <mxCell id="TKd9hJtpSLccOIUxYixI-263" value="" style="endArrow=none;html=1;rounded=0;" parent="1" edge="1">
          <mxGeometry width="50" height="50" relative="1" as="geometry">
            <mxPoint x="40" y="384.72" as="sourcePoint" />
            <mxPoint x="60" y="384.72" as="targetPoint" />
          </mxGeometry>
        </mxCell>
        <mxCell id="TKd9hJtpSLccOIUxYixI-264" value="" style="endArrow=none;html=1;rounded=0;" parent="1" edge="1">
          <mxGeometry width="50" height="50" relative="1" as="geometry">
            <mxPoint x="40" y="360" as="sourcePoint" />
            <mxPoint x="60" y="360" as="targetPoint" />
          </mxGeometry>
        </mxCell>
        <mxCell id="TKd9hJtpSLccOIUxYixI-265" value="" style="endArrow=none;html=1;rounded=0;" parent="1" edge="1">
          <mxGeometry width="50" height="50" relative="1" as="geometry">
            <mxPoint x="40" y="410" as="sourcePoint" />
            <mxPoint x="60" y="410" as="targetPoint" />
          </mxGeometry>
        </mxCell>
        <mxCell id="TKd9hJtpSLccOIUxYixI-266" value="" style="endArrow=none;html=1;rounded=0;" parent="1" edge="1">
          <mxGeometry width="50" height="50" relative="1" as="geometry">
            <mxPoint x="40" y="435" as="sourcePoint" />
            <mxPoint x="60" y="435" as="targetPoint" />
          </mxGeometry>
        </mxCell>
        <mxCell id="TKd9hJtpSLccOIUxYixI-267" value="0" style="text;html=1;strokeColor=none;fillColor=none;align=left;verticalAlign=middle;whiteSpace=wrap;rounded=0;" parent="1" vertex="1">
          <mxGeometry x="60" y="327.5" width="10" height="15" as="geometry" />
        </mxCell>
        <mxCell id="TKd9hJtpSLccOIUxYixI-268" value="1" style="text;html=1;strokeColor=none;fillColor=none;align=left;verticalAlign=middle;whiteSpace=wrap;rounded=0;" parent="1" vertex="1">
          <mxGeometry x="60" y="352" width="10" height="15" as="geometry" />
        </mxCell>
        <mxCell id="TKd9hJtpSLccOIUxYixI-269" value="2" style="text;html=1;strokeColor=none;fillColor=none;align=left;verticalAlign=middle;whiteSpace=wrap;rounded=0;" parent="1" vertex="1">
          <mxGeometry x="60" y="377" width="10" height="15" as="geometry" />
        </mxCell>
        <mxCell id="TKd9hJtpSLccOIUxYixI-270" value="3" style="text;html=1;strokeColor=none;fillColor=none;align=left;verticalAlign=middle;whiteSpace=wrap;rounded=0;" parent="1" vertex="1">
          <mxGeometry x="60" y="402.5" width="10" height="15" as="geometry" />
        </mxCell>
        <mxCell id="TKd9hJtpSLccOIUxYixI-271" value="4" style="text;html=1;strokeColor=none;fillColor=none;align=left;verticalAlign=middle;whiteSpace=wrap;rounded=0;" parent="1" vertex="1">
          <mxGeometry x="60" y="427" width="10" height="15" as="geometry" />
        </mxCell>
        <mxCell id="TKd9hJtpSLccOIUxYixI-281" value="" style="group" parent="1" vertex="1" connectable="0">
          <mxGeometry x="-60" y="320" width="100" height="30" as="geometry" />
        </mxCell>
        <mxCell id="TKd9hJtpSLccOIUxYixI-279" value="" style="verticalLabelPosition=bottom;verticalAlign=top;html=1;shape=offPageConnector;rounded=0;size=0.25;rotation=-90;fillColor=#E6E6E6;" parent="TKd9hJtpSLccOIUxYixI-281" vertex="1">
          <mxGeometry x="38.75" y="-35" width="22.5" height="100" as="geometry" />
        </mxCell>
        <mxCell id="TKd9hJtpSLccOIUxYixI-280" value="Add.T4" style="text;html=1;strokeColor=none;fillColor=none;align=center;verticalAlign=middle;whiteSpace=wrap;rounded=0;fontSize=17;" parent="TKd9hJtpSLccOIUxYixI-281" vertex="1">
          <mxGeometry width="80" height="30" as="geometry" />
        </mxCell>
        <mxCell id="TKd9hJtpSLccOIUxYixI-282" value="" style="group" parent="1" vertex="1" connectable="0">
          <mxGeometry x="-60" y="345" width="100" height="30" as="geometry" />
        </mxCell>
        <mxCell id="TKd9hJtpSLccOIUxYixI-283" value="" style="verticalLabelPosition=bottom;verticalAlign=top;html=1;shape=offPageConnector;rounded=0;size=0.25;rotation=-90;fillColor=#E6E6E6;" parent="TKd9hJtpSLccOIUxYixI-282" vertex="1">
          <mxGeometry x="38.75" y="-35" width="22.5" height="100" as="geometry" />
        </mxCell>
        <mxCell id="TKd9hJtpSLccOIUxYixI-284" value="And.T4" style="text;html=1;strokeColor=none;fillColor=none;align=center;verticalAlign=middle;whiteSpace=wrap;rounded=0;fontSize=17;" parent="TKd9hJtpSLccOIUxYixI-282" vertex="1">
          <mxGeometry width="80" height="30" as="geometry" />
        </mxCell>
        <mxCell id="TKd9hJtpSLccOIUxYixI-286" value="" style="group" parent="1" vertex="1" connectable="0">
          <mxGeometry x="-60" y="370" width="100" height="30" as="geometry" />
        </mxCell>
        <mxCell id="TKd9hJtpSLccOIUxYixI-287" value="" style="verticalLabelPosition=bottom;verticalAlign=top;html=1;shape=offPageConnector;rounded=0;size=0.25;rotation=-90;fillColor=#E6E6E6;" parent="TKd9hJtpSLccOIUxYixI-286" vertex="1">
          <mxGeometry x="38.75" y="-35" width="22.5" height="100" as="geometry" />
        </mxCell>
        <mxCell id="TKd9hJtpSLccOIUxYixI-288" value="Comp.T2" style="text;html=1;strokeColor=none;fillColor=none;align=center;verticalAlign=middle;whiteSpace=wrap;rounded=0;fontSize=17;" parent="TKd9hJtpSLccOIUxYixI-286" vertex="1">
          <mxGeometry width="80" height="30" as="geometry" />
        </mxCell>
        <mxCell id="TKd9hJtpSLccOIUxYixI-289" value="" style="group" parent="1" vertex="1" connectable="0">
          <mxGeometry x="-60" y="395" width="100" height="30" as="geometry" />
        </mxCell>
        <mxCell id="TKd9hJtpSLccOIUxYixI-290" value="" style="verticalLabelPosition=bottom;verticalAlign=top;html=1;shape=offPageConnector;rounded=0;size=0.25;rotation=-90;fillColor=#E6E6E6;" parent="TKd9hJtpSLccOIUxYixI-289" vertex="1">
          <mxGeometry x="38.75" y="-35" width="22.5" height="100" as="geometry" />
        </mxCell>
        <mxCell id="TKd9hJtpSLccOIUxYixI-291" value="LSL.T2" style="text;html=1;strokeColor=none;fillColor=none;align=center;verticalAlign=middle;whiteSpace=wrap;rounded=0;fontSize=17;" parent="TKd9hJtpSLccOIUxYixI-289" vertex="1">
          <mxGeometry width="80" height="30" as="geometry" />
        </mxCell>
        <mxCell id="TKd9hJtpSLccOIUxYixI-292" value="" style="group" parent="1" vertex="1" connectable="0">
          <mxGeometry x="-60" y="420" width="100" height="30" as="geometry" />
        </mxCell>
        <mxCell id="TKd9hJtpSLccOIUxYixI-293" value="" style="verticalLabelPosition=bottom;verticalAlign=top;html=1;shape=offPageConnector;rounded=0;size=0.25;rotation=-90;fillColor=#E6E6E6;" parent="TKd9hJtpSLccOIUxYixI-292" vertex="1">
          <mxGeometry x="38.75" y="-35" width="22.5" height="100" as="geometry" />
        </mxCell>
        <mxCell id="TKd9hJtpSLccOIUxYixI-294" value="Load.T4" style="text;html=1;strokeColor=none;fillColor=none;align=center;verticalAlign=middle;whiteSpace=wrap;rounded=0;fontSize=17;" parent="TKd9hJtpSLccOIUxYixI-292" vertex="1">
          <mxGeometry width="80" height="30" as="geometry" />
        </mxCell>
        <mxCell id="TKd9hJtpSLccOIUxYixI-295" value="Main Control" style="text;html=1;strokeColor=none;fillColor=none;align=center;verticalAlign=middle;whiteSpace=wrap;rounded=0;fontSize=25;" parent="1" vertex="1">
          <mxGeometry x="-124" y="470" width="150" height="32.5" as="geometry" />
        </mxCell>
        <mxCell id="TKd9hJtpSLccOIUxYixI-296" value="&lt;div style=&quot;font-size: 16px;&quot;&gt;Dec&lt;/div&gt;&lt;div style=&quot;font-size: 16px;&quot;&gt;&lt;font style=&quot;font-size: 16px;&quot; face=&quot;Fira Code&quot;&gt;3-&amp;gt;8&lt;/font&gt;&lt;br style=&quot;font-size: 16px;&quot;&gt;&lt;/div&gt;" style="rounded=0;whiteSpace=wrap;html=1;spacingBottom=22;fontSize=16;fillColor=#CCFF99;" parent="1" vertex="1">
          <mxGeometry x="-165" y="160" width="170" height="80" as="geometry" />
        </mxCell>
        <mxCell id="TKd9hJtpSLccOIUxYixI-297" value="&lt;div style=&quot;font-size: 16px;&quot;&gt;Dec&lt;/div&gt;&lt;div style=&quot;font-size: 16px;&quot;&gt;&lt;font style=&quot;font-size: 16px;&quot; face=&quot;Fira Code&quot;&gt;3-&amp;gt;8&lt;/font&gt;&lt;br style=&quot;font-size: 16px;&quot;&gt;&lt;/div&gt;" style="rounded=0;whiteSpace=wrap;html=1;spacingTop=22;fontSize=16;fillColor=#CCFF99;" parent="1" vertex="1">
          <mxGeometry x="-160" y="600" width="200" height="80" as="geometry" />
        </mxCell>
        <mxCell id="TKd9hJtpSLccOIUxYixI-298" value="" style="endArrow=none;html=1;rounded=0;entryX=0.5;entryY=1;entryDx=0;entryDy=0;startArrow=oval;startFill=1;endFill=0;" parent="1" target="TKd9hJtpSLccOIUxYixI-297" edge="1">
          <mxGeometry width="50" height="50" relative="1" as="geometry">
            <mxPoint x="485" y="595" as="sourcePoint" />
            <mxPoint x="-70" y="600" as="targetPoint" />
            <Array as="points">
              <mxPoint x="485" y="760" />
              <mxPoint x="-60" y="760" />
            </Array>
          </mxGeometry>
        </mxCell>
        <mxCell id="TKd9hJtpSLccOIUxYixI-299" value="SC" style="whiteSpace=wrap;html=1;aspect=fixed;fontSize=25;spacingTop=44;spacingRight=27;fillColor=#FF9999;" parent="1" vertex="1">
          <mxGeometry x="-160" y="60" width="80" height="80" as="geometry" />
        </mxCell>
        <mxCell id="TKd9hJtpSLccOIUxYixI-302" style="edgeStyle=orthogonalEdgeStyle;rounded=0;orthogonalLoop=1;jettySize=auto;html=1;exitX=0.75;exitY=1;exitDx=0;exitDy=0;endArrow=none;endFill=0;" parent="1" source="TKd9hJtpSLccOIUxYixI-300" edge="1">
          <mxGeometry relative="1" as="geometry">
            <mxPoint x="20" y="260" as="targetPoint" />
          </mxGeometry>
        </mxCell>
        <mxCell id="TKd9hJtpSLccOIUxYixI-300" value="==" style="whiteSpace=wrap;html=1;aspect=fixed;fontSize=30;spacingTop=43;spacingRight=29;fillColor=#9999FF;" parent="1" vertex="1">
          <mxGeometry x="-40" y="60" width="80" height="80" as="geometry" />
        </mxCell>
        <mxCell id="TKd9hJtpSLccOIUxYixI-304" value="Z" style="ellipse;whiteSpace=wrap;html=1;aspect=fixed;fillColor=#66FF66;" parent="1" vertex="1">
          <mxGeometry x="7.5" y="265" width="25" height="25" as="geometry" />
        </mxCell>
        <mxCell id="TKd9hJtpSLccOIUxYixI-310" value="" style="group;fillColor=none;fillStyle=solid;" parent="1" vertex="1" connectable="0">
          <mxGeometry x="50" y="110" width="65" height="20" as="geometry" />
        </mxCell>
        <mxCell id="TKd9hJtpSLccOIUxYixI-311" value="" style="verticalLabelPosition=bottom;verticalAlign=top;html=1;shape=hexagon;perimeter=hexagonPerimeter2;arcSize=6;size=0.17647058823529413;fillColor=#FFB366;" parent="TKd9hJtpSLccOIUxYixI-310" vertex="1">
          <mxGeometry width="65" height="20" as="geometry" />
        </mxCell>
        <mxCell id="TKd9hJtpSLccOIUxYixI-312" value="0000" style="text;html=1;strokeColor=none;fillColor=none;align=center;verticalAlign=middle;whiteSpace=wrap;rounded=0;fontFamily=Fira Code;fontSize=19;" parent="TKd9hJtpSLccOIUxYixI-310" vertex="1">
          <mxGeometry x="7.5" width="50" height="20" as="geometry" />
        </mxCell>
        <mxCell id="TKd9hJtpSLccOIUxYixI-313" value="" style="endArrow=none;html=1;rounded=0;" parent="1" edge="1">
          <mxGeometry width="50" height="50" relative="1" as="geometry">
            <mxPoint x="9.659999999999997" y="600" as="sourcePoint" />
            <mxPoint x="10" y="530" as="targetPoint" />
          </mxGeometry>
        </mxCell>
        <mxCell id="TKd9hJtpSLccOIUxYixI-314" value="" style="endArrow=none;html=1;rounded=0;" parent="1" edge="1">
          <mxGeometry width="50" height="50" relative="1" as="geometry">
            <mxPoint x="-10.000000000000004" y="600" as="sourcePoint" />
            <mxPoint x="-10" y="530" as="targetPoint" />
          </mxGeometry>
        </mxCell>
        <mxCell id="TKd9hJtpSLccOIUxYixI-315" value="" style="endArrow=none;html=1;rounded=0;" parent="1" edge="1">
          <mxGeometry width="50" height="50" relative="1" as="geometry">
            <mxPoint x="-30.000000000000004" y="600" as="sourcePoint" />
            <mxPoint x="-30" y="530" as="targetPoint" />
          </mxGeometry>
        </mxCell>
        <mxCell id="TKd9hJtpSLccOIUxYixI-316" value="" style="endArrow=none;html=1;rounded=0;" parent="1" edge="1">
          <mxGeometry width="50" height="50" relative="1" as="geometry">
            <mxPoint x="-50" y="600" as="sourcePoint" />
            <mxPoint x="-50" y="530" as="targetPoint" />
          </mxGeometry>
        </mxCell>
        <mxCell id="TKd9hJtpSLccOIUxYixI-317" value="" style="endArrow=none;html=1;rounded=0;" parent="1" edge="1">
          <mxGeometry width="50" height="50" relative="1" as="geometry">
            <mxPoint x="-70" y="600" as="sourcePoint" />
            <mxPoint x="-70" y="530" as="targetPoint" />
          </mxGeometry>
        </mxCell>
        <mxCell id="TKd9hJtpSLccOIUxYixI-318" value="" style="endArrow=none;html=1;rounded=0;" parent="1" edge="1">
          <mxGeometry width="50" height="50" relative="1" as="geometry">
            <mxPoint x="-90" y="600" as="sourcePoint" />
            <mxPoint x="-90" y="530" as="targetPoint" />
          </mxGeometry>
        </mxCell>
        <mxCell id="TKd9hJtpSLccOIUxYixI-319" value="" style="endArrow=none;html=1;rounded=0;" parent="1" edge="1">
          <mxGeometry width="50" height="50" relative="1" as="geometry">
            <mxPoint x="-110" y="600" as="sourcePoint" />
            <mxPoint x="-110" y="530" as="targetPoint" />
          </mxGeometry>
        </mxCell>
        <mxCell id="TKd9hJtpSLccOIUxYixI-320" value="" style="endArrow=none;html=1;rounded=0;" parent="1" edge="1">
          <mxGeometry width="50" height="50" relative="1" as="geometry">
            <mxPoint x="-130.34" y="600" as="sourcePoint" />
            <mxPoint x="-130" y="530" as="targetPoint" />
          </mxGeometry>
        </mxCell>
        <mxCell id="TKd9hJtpSLccOIUxYixI-321" value="" style="endArrow=none;html=1;rounded=0;" parent="1" edge="1">
          <mxGeometry width="50" height="50" relative="1" as="geometry">
            <mxPoint x="-10" y="260" as="sourcePoint" />
            <mxPoint x="-10" y="240" as="targetPoint" />
          </mxGeometry>
        </mxCell>
        <mxCell id="TKd9hJtpSLccOIUxYixI-322" value="" style="endArrow=none;html=1;rounded=0;" parent="1" edge="1">
          <mxGeometry width="50" height="50" relative="1" as="geometry">
            <mxPoint x="-30" y="260" as="sourcePoint" />
            <mxPoint x="-30" y="240" as="targetPoint" />
          </mxGeometry>
        </mxCell>
        <mxCell id="TKd9hJtpSLccOIUxYixI-323" value="" style="endArrow=none;html=1;rounded=0;" parent="1" edge="1">
          <mxGeometry width="50" height="50" relative="1" as="geometry">
            <mxPoint x="-50.28" y="260" as="sourcePoint" />
            <mxPoint x="-50.28" y="240" as="targetPoint" />
          </mxGeometry>
        </mxCell>
        <mxCell id="TKd9hJtpSLccOIUxYixI-324" value="" style="endArrow=none;html=1;rounded=0;" parent="1" edge="1">
          <mxGeometry width="50" height="50" relative="1" as="geometry">
            <mxPoint x="-70.28" y="260" as="sourcePoint" />
            <mxPoint x="-70.28" y="240" as="targetPoint" />
          </mxGeometry>
        </mxCell>
        <mxCell id="TKd9hJtpSLccOIUxYixI-325" value="" style="endArrow=none;html=1;rounded=0;" parent="1" edge="1">
          <mxGeometry width="50" height="50" relative="1" as="geometry">
            <mxPoint x="-90" y="260" as="sourcePoint" />
            <mxPoint x="-90" y="240" as="targetPoint" />
          </mxGeometry>
        </mxCell>
        <mxCell id="TKd9hJtpSLccOIUxYixI-326" value="" style="endArrow=none;html=1;rounded=0;" parent="1" edge="1">
          <mxGeometry width="50" height="50" relative="1" as="geometry">
            <mxPoint x="-110.14" y="260" as="sourcePoint" />
            <mxPoint x="-110.14" y="240" as="targetPoint" />
          </mxGeometry>
        </mxCell>
        <mxCell id="TKd9hJtpSLccOIUxYixI-327" value="" style="endArrow=none;html=1;rounded=0;" parent="1" edge="1">
          <mxGeometry width="50" height="50" relative="1" as="geometry">
            <mxPoint x="-130" y="260" as="sourcePoint" />
            <mxPoint x="-130" y="240" as="targetPoint" />
          </mxGeometry>
        </mxCell>
        <mxCell id="TKd9hJtpSLccOIUxYixI-328" value="" style="endArrow=none;html=1;rounded=0;" parent="1" edge="1">
          <mxGeometry width="50" height="50" relative="1" as="geometry">
            <mxPoint x="-150.28" y="260" as="sourcePoint" />
            <mxPoint x="-150.28" y="240" as="targetPoint" />
          </mxGeometry>
        </mxCell>
        <mxCell id="TKd9hJtpSLccOIUxYixI-329" value="" style="endArrow=none;html=1;rounded=0;" parent="1" edge="1">
          <mxGeometry width="50" height="50" relative="1" as="geometry">
            <mxPoint x="-120.24000000000001" y="160" as="sourcePoint" />
            <mxPoint x="-120.24000000000001" y="140" as="targetPoint" />
          </mxGeometry>
        </mxCell>
        <mxCell id="TKd9hJtpSLccOIUxYixI-332" value="" style="rounded=0;whiteSpace=wrap;html=1;strokeColor=none;" parent="1" vertex="1">
          <mxGeometry x="-140" y="540" width="160" height="40" as="geometry" />
        </mxCell>
        <mxCell id="TKd9hJtpSLccOIUxYixI-333" value="Load" style="text;html=1;strokeColor=none;fillColor=none;align=center;verticalAlign=middle;whiteSpace=wrap;rounded=0;rotation=90;" parent="1" vertex="1">
          <mxGeometry x="-10" y="552.5" width="35" height="15" as="geometry" />
        </mxCell>
        <mxCell id="TKd9hJtpSLccOIUxYixI-334" value="Store" style="text;html=1;strokeColor=none;fillColor=none;align=center;verticalAlign=middle;whiteSpace=wrap;rounded=0;rotation=90;" parent="1" vertex="1">
          <mxGeometry x="-27.5" y="552.5" width="35" height="15" as="geometry" />
        </mxCell>
        <mxCell id="TKd9hJtpSLccOIUxYixI-335" value="Add" style="text;html=1;strokeColor=none;fillColor=none;align=center;verticalAlign=middle;whiteSpace=wrap;rounded=0;rotation=90;" parent="1" vertex="1">
          <mxGeometry x="-48" y="552.5" width="35" height="15" as="geometry" />
        </mxCell>
        <mxCell id="TKd9hJtpSLccOIUxYixI-336" value="And" style="text;html=1;strokeColor=none;fillColor=none;align=center;verticalAlign=middle;whiteSpace=wrap;rounded=0;rotation=90;" parent="1" vertex="1">
          <mxGeometry x="-67" y="552.5" width="35" height="15" as="geometry" />
        </mxCell>
        <mxCell id="TKd9hJtpSLccOIUxYixI-337" value="Jump" style="text;html=1;strokeColor=none;fillColor=none;align=center;verticalAlign=middle;whiteSpace=wrap;rounded=0;rotation=90;" parent="1" vertex="1">
          <mxGeometry x="-88" y="552.5" width="35" height="15" as="geometry" />
        </mxCell>
        <mxCell id="TKd9hJtpSLccOIUxYixI-338" value="Jumpz" style="text;html=1;strokeColor=none;fillColor=none;align=center;verticalAlign=middle;whiteSpace=wrap;rounded=0;rotation=90;" parent="1" vertex="1">
          <mxGeometry x="-108" y="552.5" width="35" height="15" as="geometry" />
        </mxCell>
        <mxCell id="TKd9hJtpSLccOIUxYixI-339" value="Comp" style="text;html=1;strokeColor=none;fillColor=none;align=center;verticalAlign=middle;whiteSpace=wrap;rounded=0;rotation=90;" parent="1" vertex="1">
          <mxGeometry x="-128" y="552.5" width="35" height="15" as="geometry" />
        </mxCell>
        <mxCell id="TKd9hJtpSLccOIUxYixI-340" value="LSL" style="text;html=1;strokeColor=none;fillColor=none;align=center;verticalAlign=middle;whiteSpace=wrap;rounded=0;rotation=90;" parent="1" vertex="1">
          <mxGeometry x="-148" y="552.5" width="35" height="15" as="geometry" />
        </mxCell>
        <mxCell id="TKd9hJtpSLccOIUxYixI-341" value="7" style="ellipse;whiteSpace=wrap;html=1;aspect=fixed;fillColor=#E6E6E6;spacingBottom=25;" parent="1" vertex="1">
          <mxGeometry x="-138" y="614" width="15" height="15" as="geometry" />
        </mxCell>
        <mxCell id="TKd9hJtpSLccOIUxYixI-343" value="6" style="ellipse;whiteSpace=wrap;html=1;aspect=fixed;fillColor=#E6E6E6;spacingBottom=25;" parent="1" vertex="1">
          <mxGeometry x="-118" y="614" width="15" height="15" as="geometry" />
        </mxCell>
        <mxCell id="TKd9hJtpSLccOIUxYixI-344" value="5" style="ellipse;whiteSpace=wrap;html=1;aspect=fixed;fillColor=#E6E6E6;spacingBottom=25;" parent="1" vertex="1">
          <mxGeometry x="-98" y="614" width="15" height="15" as="geometry" />
        </mxCell>
        <mxCell id="TKd9hJtpSLccOIUxYixI-345" value="4" style="ellipse;whiteSpace=wrap;html=1;aspect=fixed;fillColor=#E6E6E6;spacingBottom=25;" parent="1" vertex="1">
          <mxGeometry x="-78" y="614" width="15" height="15" as="geometry" />
        </mxCell>
        <mxCell id="TKd9hJtpSLccOIUxYixI-346" value="3" style="ellipse;whiteSpace=wrap;html=1;aspect=fixed;fillColor=#E6E6E6;spacingBottom=25;" parent="1" vertex="1">
          <mxGeometry x="-57" y="614" width="15" height="15" as="geometry" />
        </mxCell>
        <mxCell id="TKd9hJtpSLccOIUxYixI-347" value="2" style="ellipse;whiteSpace=wrap;html=1;aspect=fixed;fillColor=#E6E6E6;spacingBottom=25;" parent="1" vertex="1">
          <mxGeometry x="-38" y="614" width="15" height="15" as="geometry" />
        </mxCell>
        <mxCell id="TKd9hJtpSLccOIUxYixI-348" value="1" style="ellipse;whiteSpace=wrap;html=1;aspect=fixed;fillColor=#E6E6E6;spacingBottom=25;" parent="1" vertex="1">
          <mxGeometry x="-17.5" y="614" width="15" height="15" as="geometry" />
        </mxCell>
        <mxCell id="TKd9hJtpSLccOIUxYixI-349" value="0" style="ellipse;whiteSpace=wrap;html=1;aspect=fixed;fillColor=#66FF66;spacingBottom=25;" parent="1" vertex="1">
          <mxGeometry x="3" y="614" width="15" height="15" as="geometry" />
        </mxCell>
        <mxCell id="TKd9hJtpSLccOIUxYixI-354" value="" style="group;fillColor=none;fillStyle=solid;" parent="1" vertex="1" connectable="0">
          <mxGeometry x="-75" y="690" width="30" height="20" as="geometry" />
        </mxCell>
        <mxCell id="TKd9hJtpSLccOIUxYixI-355" value="" style="verticalLabelPosition=bottom;verticalAlign=top;html=1;shape=hexagon;perimeter=hexagonPerimeter2;arcSize=6;size=0.17647058823529413;fillColor=#FFB366;" parent="TKd9hJtpSLccOIUxYixI-354" vertex="1">
          <mxGeometry width="30" height="20" as="geometry" />
        </mxCell>
        <mxCell id="TKd9hJtpSLccOIUxYixI-356" value="0" style="text;html=1;strokeColor=none;fillColor=none;align=center;verticalAlign=middle;whiteSpace=wrap;rounded=0;fontFamily=Fira Code;fontSize=19;" parent="TKd9hJtpSLccOIUxYixI-354" vertex="1">
          <mxGeometry x="3.4615384615384617" width="23.076923076923077" height="20" as="geometry" />
        </mxCell>
        <mxCell id="TKd9hJtpSLccOIUxYixI-357" value="[14:12]" style="text;html=1;strokeColor=none;fillColor=none;align=center;verticalAlign=middle;whiteSpace=wrap;rounded=0;" parent="1" vertex="1">
          <mxGeometry x="-57.5" y="715" width="40" height="15" as="geometry" />
        </mxCell>
        <mxCell id="TKd9hJtpSLccOIUxYixI-358" value="T0" style="ellipse;whiteSpace=wrap;html=1;aspect=fixed;fillColor=#66FF66;spacingBottom=0;spacingTop=32;" parent="1" vertex="1">
          <mxGeometry x="-16.5" y="211" width="15" height="15" as="geometry" />
        </mxCell>
        <mxCell id="TKd9hJtpSLccOIUxYixI-359" value="T1" style="ellipse;whiteSpace=wrap;html=1;aspect=fixed;fillColor=#E6E6E6;spacingBottom=0;spacingTop=32;" parent="1" vertex="1">
          <mxGeometry x="-37" y="211" width="15" height="15" as="geometry" />
        </mxCell>
        <mxCell id="TKd9hJtpSLccOIUxYixI-360" value="T2" style="ellipse;whiteSpace=wrap;html=1;aspect=fixed;fillColor=#E6E6E6;spacingBottom=0;spacingTop=32;" parent="1" vertex="1">
          <mxGeometry x="-56.5" y="211" width="15" height="15" as="geometry" />
        </mxCell>
        <mxCell id="TKd9hJtpSLccOIUxYixI-361" value="T3" style="ellipse;whiteSpace=wrap;html=1;aspect=fixed;fillColor=#E6E6E6;spacingBottom=0;spacingTop=32;" parent="1" vertex="1">
          <mxGeometry x="-77" y="211" width="15" height="15" as="geometry" />
        </mxCell>
        <mxCell id="TKd9hJtpSLccOIUxYixI-362" value="T4" style="ellipse;whiteSpace=wrap;html=1;aspect=fixed;fillColor=#E6E6E6;spacingBottom=0;spacingTop=32;" parent="1" vertex="1">
          <mxGeometry x="-97" y="211" width="15" height="15" as="geometry" />
        </mxCell>
        <mxCell id="TKd9hJtpSLccOIUxYixI-363" value="T5" style="ellipse;whiteSpace=wrap;html=1;aspect=fixed;fillColor=#E6E6E6;spacingBottom=0;spacingTop=32;" parent="1" vertex="1">
          <mxGeometry x="-117" y="211" width="15" height="15" as="geometry" />
        </mxCell>
        <mxCell id="TKd9hJtpSLccOIUxYixI-364" value="T6" style="ellipse;whiteSpace=wrap;html=1;aspect=fixed;fillColor=#E6E6E6;spacingBottom=0;spacingTop=32;" parent="1" vertex="1">
          <mxGeometry x="-137" y="211" width="15" height="15" as="geometry" />
        </mxCell>
        <mxCell id="TKd9hJtpSLccOIUxYixI-365" value="T7" style="ellipse;whiteSpace=wrap;html=1;aspect=fixed;fillColor=#E6E6E6;spacingBottom=0;spacingTop=32;" parent="1" vertex="1">
          <mxGeometry x="-159" y="211" width="15" height="15" as="geometry" />
        </mxCell>
        <mxCell id="TKd9hJtpSLccOIUxYixI-366" value="CLK" style="endArrow=block;html=1;rounded=0;endFill=0;endSize=13;labelBackgroundColor=#B3FF66;" parent="1" edge="1">
          <mxGeometry x="-0.7143" y="10" width="50" height="50" relative="1" as="geometry">
            <mxPoint x="-60" y="130" as="sourcePoint" />
            <mxPoint x="-95" y="130" as="targetPoint" />
            <mxPoint as="offset" />
          </mxGeometry>
        </mxCell>
        <mxCell id="TKd9hJtpSLccOIUxYixI-371" value="" style="ellipse;whiteSpace=wrap;html=1;aspect=fixed;fillColor=#E6E6E6;spacingBottom=0;spacingTop=30;align=left;" parent="1" vertex="1">
          <mxGeometry x="-180" y="263" width="15" height="15" as="geometry" />
        </mxCell>
        <mxCell id="TKd9hJtpSLccOIUxYixI-372" value="SC RST" style="text;html=1;strokeColor=none;fillColor=none;align=center;verticalAlign=middle;whiteSpace=wrap;rounded=0;" parent="1" vertex="1">
          <mxGeometry x="-185" y="277.5" width="50" height="20" as="geometry" />
        </mxCell>
        <mxCell id="TKd9hJtpSLccOIUxYixI-373" value="" style="ellipse;whiteSpace=wrap;html=1;aspect=fixed;fillColor=#E6E6E6;spacingBottom=0;spacingTop=30;align=left;" parent="1" vertex="1">
          <mxGeometry x="-155" y="70" width="15" height="15" as="geometry" />
        </mxCell>
        <mxCell id="TKd9hJtpSLccOIUxYixI-374" value="&lt;div align=&quot;left&quot;&gt;RST&lt;/div&gt;" style="text;html=1;strokeColor=none;fillColor=none;align=left;verticalAlign=middle;whiteSpace=wrap;rounded=0;" parent="1" vertex="1">
          <mxGeometry x="-140" y="70" width="50" height="20" as="geometry" />
        </mxCell>
        <mxCell id="TKd9hJtpSLccOIUxYixI-377" value="" style="endArrow=none;html=1;rounded=0;" parent="1" edge="1">
          <mxGeometry width="50" height="50" relative="1" as="geometry">
            <mxPoint x="40" y="80" as="sourcePoint" />
            <mxPoint x="90" y="80" as="targetPoint" />
          </mxGeometry>
        </mxCell>
        <mxCell id="TKd9hJtpSLccOIUxYixI-378" value="&#39;0000&#39;" style="text;html=1;strokeColor=none;fillColor=none;align=center;verticalAlign=middle;whiteSpace=wrap;rounded=0;fontFamily=Fira Code;" parent="1" vertex="1">
          <mxGeometry x="35" y="55" width="60" height="30" as="geometry" />
        </mxCell>
        <mxCell id="TKd9hJtpSLccOIUxYixI-379" value="Z" style="ellipse;whiteSpace=wrap;html=1;aspect=fixed;fillColor=#66FF66;" parent="1" vertex="1">
          <mxGeometry x="10" y="110" width="25" height="25" as="geometry" />
        </mxCell>
        <mxCell id="TKd9hJtpSLccOIUxYixI-381" value="" style="endArrow=none;html=1;rounded=0;entryX=1;entryY=0.5;entryDx=0;entryDy=0;endFill=0;" parent="1" target="TKd9hJtpSLccOIUxYixI-186" edge="1">
          <mxGeometry width="50" height="50" relative="1" as="geometry">
            <mxPoint x="40" y="500" as="sourcePoint" />
            <mxPoint x="560" y="750" as="targetPoint" />
            <Array as="points">
              <mxPoint x="80" y="500" />
              <mxPoint x="80" y="780" />
              <mxPoint x="555" y="780" />
            </Array>
          </mxGeometry>
        </mxCell>
        <mxCell id="TKd9hJtpSLccOIUxYixI-382" value="&lt;div&gt;Common Bus&lt;/div&gt;&lt;div&gt;Select&lt;br&gt;&lt;/div&gt;" style="text;html=1;strokeColor=none;fillColor=none;align=center;verticalAlign=middle;whiteSpace=wrap;rounded=0;" parent="1" vertex="1">
          <mxGeometry x="32.5" y="460" width="92.5" height="30" as="geometry" />
        </mxCell>
        <mxCell id="TKd9hJtpSLccOIUxYixI-383" value="" style="group;fillColor=none;fillStyle=solid;" parent="1" vertex="1" connectable="0">
          <mxGeometry x="45" y="490" width="30" height="20" as="geometry" />
        </mxCell>
        <mxCell id="TKd9hJtpSLccOIUxYixI-384" value="" style="verticalLabelPosition=bottom;verticalAlign=top;html=1;shape=hexagon;perimeter=hexagonPerimeter2;arcSize=6;size=0.17647058823529413;fillColor=#FFB366;" parent="TKd9hJtpSLccOIUxYixI-383" vertex="1">
          <mxGeometry width="30" height="20" as="geometry" />
        </mxCell>
        <mxCell id="TKd9hJtpSLccOIUxYixI-385" value="0" style="text;html=1;strokeColor=none;fillColor=none;align=center;verticalAlign=middle;whiteSpace=wrap;rounded=0;fontFamily=Fira Code;fontSize=19;" parent="TKd9hJtpSLccOIUxYixI-383" vertex="1">
          <mxGeometry x="3.4615384615384617" width="23.076923076923077" height="20" as="geometry" />
        </mxCell>
        <mxCell id="TKd9hJtpSLccOIUxYixI-388" value="" style="group;fillColor=none;fillStyle=solid;" parent="1" vertex="1" connectable="0">
          <mxGeometry x="540" y="680" width="30" height="20" as="geometry" />
        </mxCell>
        <mxCell id="TKd9hJtpSLccOIUxYixI-389" value="" style="verticalLabelPosition=bottom;verticalAlign=top;html=1;shape=hexagon;perimeter=hexagonPerimeter2;arcSize=6;size=0.17647058823529413;fillColor=#FFB366;" parent="TKd9hJtpSLccOIUxYixI-388" vertex="1">
          <mxGeometry width="30" height="20" as="geometry" />
        </mxCell>
        <mxCell id="TKd9hJtpSLccOIUxYixI-390" value="0" style="text;html=1;strokeColor=none;fillColor=none;align=center;verticalAlign=middle;whiteSpace=wrap;rounded=0;fontFamily=Fira Code;fontSize=19;" parent="TKd9hJtpSLccOIUxYixI-388" vertex="1">
          <mxGeometry x="3.4615384615384617" width="23.076923076923077" height="20" as="geometry" />
        </mxCell>
        <mxCell id="TKd9hJtpSLccOIUxYixI-394" value="" style="group" parent="1" vertex="1" connectable="0">
          <mxGeometry x="-240" y="299" width="100" height="30" as="geometry" />
        </mxCell>
        <mxCell id="TKd9hJtpSLccOIUxYixI-395" value="" style="verticalLabelPosition=bottom;verticalAlign=top;html=1;shape=offPageConnector;rounded=0;size=0.25;rotation=-90;fillColor=#E6E6E6;flipH=0;flipV=1;" parent="TKd9hJtpSLccOIUxYixI-394" vertex="1">
          <mxGeometry x="38.75" y="-35" width="22.5" height="100" as="geometry" />
        </mxCell>
        <mxCell id="TKd9hJtpSLccOIUxYixI-396" value="Load M" style="text;html=1;strokeColor=none;fillColor=none;align=center;verticalAlign=middle;whiteSpace=wrap;rounded=0;fontSize=17;" parent="TKd9hJtpSLccOIUxYixI-394" vertex="1">
          <mxGeometry x="20" width="80" height="30" as="geometry" />
        </mxCell>
        <mxCell id="TKd9hJtpSLccOIUxYixI-397" value="" style="group" parent="1" vertex="1" connectable="0">
          <mxGeometry x="-240" y="324" width="100" height="30" as="geometry" />
        </mxCell>
        <mxCell id="TKd9hJtpSLccOIUxYixI-398" value="" style="verticalLabelPosition=bottom;verticalAlign=top;html=1;shape=offPageConnector;rounded=0;size=0.25;rotation=-90;fillColor=#E6E6E6;flipH=0;flipV=1;" parent="TKd9hJtpSLccOIUxYixI-397" vertex="1">
          <mxGeometry x="38.75" y="-35" width="22.5" height="100" as="geometry" />
        </mxCell>
        <mxCell id="TKd9hJtpSLccOIUxYixI-399" value="Load AR" style="text;html=1;strokeColor=none;fillColor=none;align=center;verticalAlign=middle;whiteSpace=wrap;rounded=0;fontSize=17;" parent="TKd9hJtpSLccOIUxYixI-397" vertex="1">
          <mxGeometry x="20" width="80" height="30" as="geometry" />
        </mxCell>
        <mxCell id="TKd9hJtpSLccOIUxYixI-400" value="" style="group" parent="1" vertex="1" connectable="0">
          <mxGeometry x="-240" y="349" width="100" height="30" as="geometry" />
        </mxCell>
        <mxCell id="TKd9hJtpSLccOIUxYixI-401" value="" style="verticalLabelPosition=bottom;verticalAlign=top;html=1;shape=offPageConnector;rounded=0;size=0.25;rotation=-90;fillColor=#E6E6E6;flipH=0;flipV=1;" parent="TKd9hJtpSLccOIUxYixI-400" vertex="1">
          <mxGeometry x="38.75" y="-35" width="22.5" height="100" as="geometry" />
        </mxCell>
        <mxCell id="TKd9hJtpSLccOIUxYixI-402" value="Load PC" style="text;html=1;strokeColor=none;fillColor=none;align=center;verticalAlign=middle;whiteSpace=wrap;rounded=0;fontSize=17;" parent="TKd9hJtpSLccOIUxYixI-400" vertex="1">
          <mxGeometry x="20" width="80" height="30" as="geometry" />
        </mxCell>
        <mxCell id="TKd9hJtpSLccOIUxYixI-403" value="" style="group" parent="1" vertex="1" connectable="0">
          <mxGeometry x="-240" y="374" width="100" height="30" as="geometry" />
        </mxCell>
        <mxCell id="TKd9hJtpSLccOIUxYixI-404" value="" style="verticalLabelPosition=bottom;verticalAlign=top;html=1;shape=offPageConnector;rounded=0;size=0.25;rotation=-90;fillColor=#E6E6E6;flipH=0;flipV=1;" parent="TKd9hJtpSLccOIUxYixI-403" vertex="1">
          <mxGeometry x="38.75" y="-35" width="22.5" height="100" as="geometry" />
        </mxCell>
        <mxCell id="TKd9hJtpSLccOIUxYixI-405" value="En PC" style="text;html=1;strokeColor=none;fillColor=none;align=center;verticalAlign=middle;whiteSpace=wrap;rounded=0;fontSize=17;" parent="TKd9hJtpSLccOIUxYixI-403" vertex="1">
          <mxGeometry x="20" width="80" height="30" as="geometry" />
        </mxCell>
        <mxCell id="TKd9hJtpSLccOIUxYixI-406" value="" style="group" parent="1" vertex="1" connectable="0">
          <mxGeometry x="-240" y="399" width="100" height="30" as="geometry" />
        </mxCell>
        <mxCell id="TKd9hJtpSLccOIUxYixI-407" value="" style="verticalLabelPosition=bottom;verticalAlign=top;html=1;shape=offPageConnector;rounded=0;size=0.25;rotation=-90;fillColor=#E6E6E6;flipH=0;flipV=1;" parent="TKd9hJtpSLccOIUxYixI-406" vertex="1">
          <mxGeometry x="38.75" y="-35" width="22.5" height="100" as="geometry" />
        </mxCell>
        <mxCell id="TKd9hJtpSLccOIUxYixI-408" value="Load DR" style="text;html=1;strokeColor=none;fillColor=none;align=center;verticalAlign=middle;whiteSpace=wrap;rounded=0;fontSize=17;" parent="TKd9hJtpSLccOIUxYixI-406" vertex="1">
          <mxGeometry x="20" width="80" height="30" as="geometry" />
        </mxCell>
        <mxCell id="TKd9hJtpSLccOIUxYixI-409" value="" style="group" parent="1" vertex="1" connectable="0">
          <mxGeometry x="-240" y="424" width="100" height="30" as="geometry" />
        </mxCell>
        <mxCell id="TKd9hJtpSLccOIUxYixI-410" value="" style="verticalLabelPosition=bottom;verticalAlign=top;html=1;shape=offPageConnector;rounded=0;size=0.25;rotation=-90;fillColor=#E6E6E6;flipH=0;flipV=1;" parent="TKd9hJtpSLccOIUxYixI-409" vertex="1">
          <mxGeometry x="38.75" y="-35" width="22.5" height="100" as="geometry" />
        </mxCell>
        <mxCell id="TKd9hJtpSLccOIUxYixI-411" value="&lt;font style=&quot;font-size: 16px;&quot;&gt;Load InpR&lt;/font&gt;" style="text;html=1;strokeColor=none;fillColor=none;align=center;verticalAlign=middle;whiteSpace=wrap;rounded=0;fontSize=17;" parent="TKd9hJtpSLccOIUxYixI-409" vertex="1">
          <mxGeometry x="20" width="80" height="30" as="geometry" />
        </mxCell>
        <mxCell id="TKd9hJtpSLccOIUxYixI-412" value="" style="group" parent="1" vertex="1" connectable="0">
          <mxGeometry x="-240" y="449" width="100" height="30" as="geometry" />
        </mxCell>
        <mxCell id="TKd9hJtpSLccOIUxYixI-413" value="" style="verticalLabelPosition=bottom;verticalAlign=top;html=1;shape=offPageConnector;rounded=0;size=0.25;rotation=-90;fillColor=#E6E6E6;flipH=0;flipV=1;" parent="TKd9hJtpSLccOIUxYixI-412" vertex="1">
          <mxGeometry x="38.75" y="-35" width="22.5" height="100" as="geometry" />
        </mxCell>
        <mxCell id="TKd9hJtpSLccOIUxYixI-414" value="Load TR" style="text;html=1;strokeColor=none;fillColor=none;align=center;verticalAlign=middle;whiteSpace=wrap;rounded=0;fontSize=17;" parent="TKd9hJtpSLccOIUxYixI-412" vertex="1">
          <mxGeometry x="20" width="80" height="30" as="geometry" />
        </mxCell>
        <mxCell id="TKd9hJtpSLccOIUxYixI-415" value="" style="group" parent="1" vertex="1" connectable="0">
          <mxGeometry x="-240" y="474" width="100" height="30" as="geometry" />
        </mxCell>
        <mxCell id="TKd9hJtpSLccOIUxYixI-416" value="" style="verticalLabelPosition=bottom;verticalAlign=top;html=1;shape=offPageConnector;rounded=0;size=0.25;rotation=-90;fillColor=#E6E6E6;flipH=0;flipV=1;" parent="TKd9hJtpSLccOIUxYixI-415" vertex="1">
          <mxGeometry x="38.75" y="-35" width="22.5" height="100" as="geometry" />
        </mxCell>
        <mxCell id="TKd9hJtpSLccOIUxYixI-417" value="Load IR" style="text;html=1;strokeColor=none;fillColor=none;align=center;verticalAlign=middle;whiteSpace=wrap;rounded=0;fontSize=17;" parent="TKd9hJtpSLccOIUxYixI-415" vertex="1">
          <mxGeometry x="20" width="80" height="30" as="geometry" />
        </mxCell>
        <mxCell id="TKd9hJtpSLccOIUxYixI-418" value="" style="group" parent="1" vertex="1" connectable="0">
          <mxGeometry x="-240" y="499" width="100" height="30" as="geometry" />
        </mxCell>
        <mxCell id="TKd9hJtpSLccOIUxYixI-419" value="" style="verticalLabelPosition=bottom;verticalAlign=top;html=1;shape=offPageConnector;rounded=0;size=0.25;rotation=-90;fillColor=#E6E6E6;flipH=0;flipV=1;" parent="TKd9hJtpSLccOIUxYixI-418" vertex="1">
          <mxGeometry x="38.75" y="-35" width="22.5" height="100" as="geometry" />
        </mxCell>
        <mxCell id="TKd9hJtpSLccOIUxYixI-420" value="Load OutR" style="text;html=1;strokeColor=none;fillColor=none;align=center;verticalAlign=middle;whiteSpace=wrap;rounded=0;fontSize=16;" parent="TKd9hJtpSLccOIUxYixI-418" vertex="1">
          <mxGeometry x="20" width="80" height="30" as="geometry" />
        </mxCell>
        <mxCell id="TKd9hJtpSLccOIUxYixI-421" value="" style="endArrow=none;html=1;rounded=0;" parent="1" edge="1">
          <mxGeometry width="50" height="50" relative="1" as="geometry">
            <mxPoint x="165" y="479.75" as="sourcePoint" />
            <mxPoint x="250" y="479.75" as="targetPoint" />
          </mxGeometry>
        </mxCell>
        <mxCell id="TKd9hJtpSLccOIUxYixI-422" value="" style="endArrow=none;html=1;rounded=0;" parent="1" edge="1">
          <mxGeometry width="50" height="50" relative="1" as="geometry">
            <mxPoint x="165" y="544.75" as="sourcePoint" />
            <mxPoint x="250" y="544.75" as="targetPoint" />
          </mxGeometry>
        </mxCell>
        <mxCell id="TKd9hJtpSLccOIUxYixI-423" value="" style="endArrow=none;html=1;rounded=0;" parent="1" edge="1">
          <mxGeometry width="50" height="50" relative="1" as="geometry">
            <mxPoint x="165" y="605" as="sourcePoint" />
            <mxPoint x="250" y="605" as="targetPoint" />
          </mxGeometry>
        </mxCell>
        <mxCell id="TKd9hJtpSLccOIUxYixI-424" value="" style="endArrow=none;html=1;rounded=0;" parent="1" edge="1">
          <mxGeometry width="50" height="50" relative="1" as="geometry">
            <mxPoint x="165" y="674.75" as="sourcePoint" />
            <mxPoint x="250" y="674.75" as="targetPoint" />
          </mxGeometry>
        </mxCell>
        <mxCell id="TKd9hJtpSLccOIUxYixI-136" value="" style="group" parent="1" vertex="1" connectable="0">
          <mxGeometry x="140" y="315" width="100" height="30.000000000000004" as="geometry" />
        </mxCell>
        <mxCell id="TKd9hJtpSLccOIUxYixI-426" value="" style="endArrow=none;html=1;rounded=0;" parent="TKd9hJtpSLccOIUxYixI-136" edge="1">
          <mxGeometry width="50" height="50" relative="1" as="geometry">
            <mxPoint x="60" y="10" as="sourcePoint" />
            <mxPoint x="145" y="10" as="targetPoint" />
          </mxGeometry>
        </mxCell>
        <mxCell id="TKd9hJtpSLccOIUxYixI-137" value="" style="verticalLabelPosition=bottom;verticalAlign=top;html=1;shape=offPageConnector;rounded=0;size=0.25;rotation=-90;fillColor=#E6E6E6;" parent="TKd9hJtpSLccOIUxYixI-136" vertex="1">
          <mxGeometry x="35" y="-35" width="30" height="100" as="geometry" />
        </mxCell>
        <mxCell id="TKd9hJtpSLccOIUxYixI-138" value="Load AC" style="text;html=1;strokeColor=none;fillColor=none;align=center;verticalAlign=middle;whiteSpace=wrap;rounded=0;fontSize=17;" parent="TKd9hJtpSLccOIUxYixI-136" vertex="1">
          <mxGeometry x="5" width="70" height="30" as="geometry" />
        </mxCell>
        <mxCell id="TKd9hJtpSLccOIUxYixI-427" value="" style="endArrow=none;html=1;rounded=0;" parent="1" edge="1">
          <mxGeometry width="50" height="50" relative="1" as="geometry">
            <mxPoint x="166" y="184.5" as="sourcePoint" />
            <mxPoint x="251" y="184.5" as="targetPoint" />
          </mxGeometry>
        </mxCell>
        <mxCell id="TKd9hJtpSLccOIUxYixI-428" value="" style="endArrow=none;html=1;rounded=0;" parent="1" edge="1">
          <mxGeometry width="50" height="50" relative="1" as="geometry">
            <mxPoint x="165" y="94.75" as="sourcePoint" />
            <mxPoint x="250" y="94.75" as="targetPoint" />
          </mxGeometry>
        </mxCell>
        <mxCell id="SHGWyjXXMI4OLjkZRUR8-2" value="Control Unit" style="text;html=1;strokeColor=none;fillColor=none;align=center;verticalAlign=middle;whiteSpace=wrap;rounded=0;fontSize=36;" vertex="1" parent="1">
          <mxGeometry x="-189.5" y="5" width="240" height="55" as="geometry" />
        </mxCell>
        <mxCell id="SHGWyjXXMI4OLjkZRUR8-3" value="AC" style="text;html=1;strokeColor=none;fillColor=none;align=center;verticalAlign=middle;whiteSpace=wrap;rounded=0;fontSize=16;" vertex="1" parent="1">
          <mxGeometry x="52.5" y="87.5" width="60" height="30" as="geometry" />
        </mxCell>
        <mxCell id="SHGWyjXXMI4OLjkZRUR8-4" value="0" style="rounded=0;whiteSpace=wrap;html=1;fontFamily=Fira Code;fontSize=16;" vertex="1" parent="1">
          <mxGeometry x="-100" y="60" width="20" height="20" as="geometry" />
        </mxCell>
      </root>
    </mxGraphModel>
  </diagram>
</mxfile>
